<svg xmlns="http://www.w3.org/2000/svg" xmlns:xlink="http://www.w3.org/1999/xlink" width="500" zoomAndPan="magnify" viewBox="0 0 375 374.999991" height="500" preserveAspectRatio="xMidYMid meet" version="1.0"><defs><g/></defs><g fill="#af1b51" fill-opacity="1"><g transform="translate(105.568658, 226.422745)"><g><path d="M 10.90625 63.308594 C 9.011719 63.308594 9.011719 62.832031 7.113281 62.597656 C 3.320312 45.761719 23.949219 24.660156 34.617188 13.988281 C 36.988281 11.382812 45.523438 3.792969 48.371094 3.082031 C 46.234375 6.875 44.574219 20.390625 35.566406 38.648438 C 31.535156 46.710938 21.101562 63.308594 10.90625 63.308594 Z M 126.613281 -50.742188 C 124.242188 -49.554688 120.6875 -48.605469 117.605469 -47.894531 C 109.78125 -45.050781 100.058594 -40.546875 92.945312 -36.988281 L 69.710938 -24.183594 C 67.101562 -22.523438 64.492188 -20.390625 61.648438 -19.441406 C 62.121094 -24.183594 66.152344 -38.410156 67.339844 -43.628906 C 71.605469 -59.511719 79.429688 -84.648438 86.070312 -99.585938 L 95.789062 -120.449219 C 102.429688 -133.726562 127.324219 -177.355469 143.921875 -178.304688 C 149.140625 -170.242188 143.921875 -146.769531 142.261719 -138.234375 C 137.996094 -117.605469 131.59375 -86.070312 128.984375 -65.679688 C 128.273438 -60.9375 127.800781 -55.246094 126.613281 -50.742188 Z M 9.484375 71.367188 C 44.574219 71.367188 56.90625 -4.269531 59.511719 -6.875 C 59.75 -7.351562 66.625 -12.328125 67.8125 -12.804688 C 84.882812 -23.710938 85.359375 -23.949219 104.5625 -33.433594 C 113.097656 -37.699219 120.6875 -39.832031 125.191406 -41.96875 C 125.191406 -35.328125 124.242188 -31.0625 123.53125 -24.660156 L 116.183594 44.574219 C 115.707031 55.484375 114.046875 72.792969 114.046875 81.328125 C 114.046875 85.59375 113.335938 86.304688 113.335938 90.101562 C 112.863281 97.214844 111.914062 124.480469 119.027344 124.480469 C 125.902344 124.480469 122.820312 118.554688 122.820312 104.328125 C 122.820312 96.265625 123.53125 89.863281 123.53125 82.75 L 134.914062 -40.308594 C 135.386719 -45.289062 135.625 -45.289062 140.128906 -46.234375 C 146.53125 -47.421875 149.613281 -47.660156 151.035156 -47.660156 C 153.40625 -47.660156 150.5625 -46.472656 154.828125 -46.472656 C 159.808594 -46.472656 160.996094 -55.246094 151.984375 -55.246094 C 146.058594 -55.246094 142.261719 -53.824219 137.046875 -53.824219 C 137.046875 -59.039062 137.996094 -62.832031 138.707031 -67.8125 C 141.789062 -88.914062 154.117188 -148.429688 154.117188 -163.601562 C 154.117188 -170.953125 155.304688 -185.890625 143.210938 -185.890625 C 132.304688 -185.890625 119.027344 -170.242188 113.8125 -163.601562 C 82.511719 -125.429688 63.308594 -65.914062 52.875 -17.070312 C 51.453125 -10.195312 50.265625 -11.382812 40.546875 -3.320312 C 25.132812 9.484375 -1.660156 36.277344 -2.371094 57.378906 C -2.371094 64.96875 2.132812 71.367188 9.484375 71.367188 Z M 9.484375 71.367188 "/></g></g></g></svg>