<svg xmlns="http://www.w3.org/2000/svg" xmlns:xlink="http://www.w3.org/1999/xlink" width="700" zoomAndPan="magnify" viewBox="0 0 525 299.999988" height="400" preserveAspectRatio="xMidYMid meet" version="1.0"><defs><filter x="0%" y="0%" width="100%" height="100%" id="c944d2efd9"><feColorMatrix values="0 0 0 0 1 0 0 0 0 1 0 0 0 0 1 0 0 0 1 0" color-interpolation-filters="sRGB"/></filter><g/><mask id="22f2749cb8"><g filter="url(#c944d2efd9)"><rect x="-52.5" width="630" fill="#000000" y="-29.999999" height="359.999986" fill-opacity="0.6392"/></g></mask><clipPath id="94bea60037"><path d="M 301 117 L 372.839844 117 L 372.839844 167 L 301 167 Z M 301 117 " clip-rule="nonzero"/></clipPath><clipPath id="93196b3b14"><rect x="0" width="373" y="0" height="300"/></clipPath></defs><g mask="url(#22f2749cb8)"><g transform="matrix(1, 0, 0, 1, 81, 0)"><g clip-path="url(#93196b3b14)"><g fill="#cb537f" fill-opacity="1"><g transform="translate(0.946273, 176.972961)"><g><path d="M 76.722656 5.210938 C 76.722656 0.832031 75.679688 -2.292969 75.679688 -10.632812 C 75.679688 -25.226562 80.683594 -63.585938 76.09375 -71.507812 C 75.261719 -73.386719 73.386719 -74.425781 71.300781 -74.425781 C 69.839844 -74.425781 68.382812 -74.011719 67.128906 -73.175781 C 62.753906 -70.257812 58.792969 -62.128906 56.082031 -56.914062 C 41.277344 -26.894531 33.148438 12.925781 23.765625 47.117188 L 18.761719 62.128906 C 17.722656 64.421875 17.722656 65.460938 15.425781 66.089844 L 13.34375 55.871094 C 7.714844 22.097656 12.507812 -33.566406 16.886719 -64.003906 C 20.640625 -89.230469 23.351562 -104.03125 29.8125 -127.796875 C 31.0625 -131.96875 34.398438 -139.683594 28.5625 -139.683594 C 20.222656 -139.683594 9.796875 -75.886719 9.171875 -71.71875 C 7.296875 -58.792969 5.628906 -46.074219 4.167969 -32.941406 L 2.085938 9.171875 C 2.085938 22.722656 3.335938 74.21875 15.425781 74.21875 C 19.597656 74.21875 20.847656 72.132812 22.722656 68.796875 C 26.476562 59.625 29.605469 50.660156 31.898438 41.070312 C 35.441406 28.769531 38.570312 15.011719 41.90625 1.875 C 46.28125 -16.054688 55.871094 -48.992188 67.339844 -64.421875 C 68.796875 -66.296875 68.589844 -66.921875 71.089844 -67.546875 C 71.089844 -64.421875 71.507812 -62.542969 71.507812 -60.875 L 68.382812 -19.179688 C 67.757812 -10.007812 67.757812 13.132812 76.722656 13.132812 C 87.769531 13.132812 99.863281 -33.980469 103.40625 -43.363281 C 109.035156 -57.125 112.164062 -68.796875 119.042969 -84.015625 C 125.714844 -99.027344 129.464844 -107.574219 138.015625 -121.542969 C 141.140625 -126.964844 145.726562 -134.054688 151.148438 -136.761719 C 155.941406 -126.339844 145.9375 -74.636719 144.058594 -62.960938 C 139.472656 -35.648438 137.597656 -17.304688 134.261719 8.964844 L 128.007812 101.945312 C 128.214844 104.449219 128.214844 105.699219 128.425781 109.242188 C 128.632812 112.578125 130.507812 114.664062 132.175781 114.664062 C 133.636719 114.664062 135.09375 112.996094 135.09375 109.242188 C 135.09375 101.53125 134.886719 91.941406 135.511719 84.433594 C 138.847656 54.414062 140.308594 25.433594 144.894531 -5.421875 L 157.820312 -91.523438 C 158.863281 -98.609375 167.410156 -144.269531 151.148438 -144.269531 C 136.554688 -144.269531 112.578125 -86.3125 108.203125 -75.261719 C 99.863281 -53.996094 94.023438 -34.398438 86.101562 -13.757812 C 84.433594 -8.546875 80.472656 2.917969 76.722656 5.210938 Z M 76.722656 5.210938 "/></g></g></g><g fill="#cb537f" fill-opacity="1"><g transform="translate(160.432315, 176.972961)"><g><path d="M 10.425781 -4.796875 C 5.835938 -14.386719 15.425781 -33.148438 16.886719 -39.195312 C 24.183594 -34.398438 18.972656 -7.089844 10.425781 -4.796875 Z M 0 -11.882812 C 0 -1.042969 4.585938 4.378906 10.007812 4.378906 C 16.261719 4.378906 23.976562 -2.917969 27.101562 -17.304688 C 31.6875 -38.777344 21.683594 -42.320312 20.640625 -46.28125 C 21.683594 -47.949219 23.558594 -49.203125 24.183594 -50.660156 C 24.808594 -52.328125 23.558594 -55.664062 20.847656 -55.664062 C 10.632812 -55.664062 0 -21.265625 0 -11.882812 Z M 0 -11.882812 "/></g></g></g><g fill="#cb537f" fill-opacity="1"><g transform="translate(197.124525, 176.972961)"><g><path d="M 0.207031 -25.433594 C 0.207031 -18.347656 -0.832031 -8.128906 8.757812 -8.128906 C 15.21875 -8.128906 25.019531 -23.976562 28.351562 -29.8125 C 29.605469 -32.105469 32.523438 -36.902344 34.191406 -37.945312 C 34.191406 -27.9375 35.023438 -10.632812 48.785156 -10.632812 C 55.039062 -10.632812 61.917969 -15.011719 67.546875 -20.222656 C 70.050781 -22.515625 79.640625 -30.4375 79.640625 -33.980469 C 79.640625 -36.277344 77.972656 -36.691406 76.304688 -36.691406 C 72.34375 -36.691406 58.582031 -17.304688 49.410156 -17.304688 C 45.449219 -17.304688 42.320312 -20.847656 41.070312 -30.855469 C 40.445312 -36.277344 43.15625 -50.035156 37.527344 -50.035156 C 33.566406 -50.035156 32.3125 -46.699219 29.605469 -42.738281 L 17.09375 -24.390625 C 15.011719 -21.683594 12.71875 -17.722656 9.382812 -16.679688 C 6.253906 -30.648438 18.972656 -52.535156 18.972656 -53.371094 C 18.972656 -55.246094 18.347656 -55.246094 18.136719 -56.707031 C 16.679688 -57.539062 15.425781 -57.75 14.386719 -57.75 C 12.71875 -57.75 11.257812 -56.914062 9.796875 -55.246094 C 4.585938 -48.574219 0.207031 -34.398438 0.207031 -25.433594 Z M 0.207031 -25.433594 "/></g></g></g><g fill="#cb537f" fill-opacity="1"><g transform="translate(267.590249, 176.972961)"><g><path d="M 2.917969 -0.832031 C 9.382812 -0.832031 6.878906 -7.921875 8.128906 -13.34375 C 8.964844 -18.347656 10.839844 -22.515625 12.925781 -26.058594 C 16.261719 -31.480469 17.304688 -31.480469 25.226562 -31.480469 C 27.519531 -31.480469 30.648438 -31.273438 33.355469 -31.273438 C 37.527344 -31.273438 40.863281 -31.6875 40.863281 -34.609375 C 40.863281 -37.316406 34.398438 -37.734375 28.351562 -37.734375 C 24.808594 -37.734375 21.265625 -37.527344 19.386719 -37.527344 C 12.925781 -37.527344 11.675781 -33.566406 8.546875 -31.480469 C 8.546875 -34.191406 8.964844 -33.980469 8.964844 -36.902344 C 8.964844 -38.984375 8.964844 -41.488281 9.171875 -43.574219 C 9.796875 -49.410156 10.839844 -53.371094 5.210938 -53.371094 C 0.625 -53.371094 0.207031 -31.6875 0.207031 -27.9375 C 0.417969 -22.722656 0.207031 -17.511719 0.417969 -12.507812 C 0.417969 -11.050781 -1.25 -0.832031 2.917969 -0.832031 Z M 2.917969 -0.832031 "/></g></g></g><g clip-path="url(#94bea60037)"><g fill="#cb537f" fill-opacity="1"><g transform="translate(301.57225, 176.972961)"><g><path d="M 0 -21.054688 C 0 -13.550781 0.625 -10.007812 8.339844 -10.007812 C 14.386719 -10.007812 20.847656 -29.605469 24.808594 -32.3125 C 24.808594 -23.351562 31.480469 -12.507812 41.90625 -12.507812 C 45.449219 -12.507812 49.410156 -13.757812 53.578125 -16.679688 L 59.832031 -21.683594 C 70.464844 -31.898438 69.214844 -37.109375 66.089844 -37.109375 C 64.835938 -37.109375 63.378906 -36.484375 62.335938 -35.023438 C 59.417969 -31.898438 58.792969 -30.019531 54.832031 -26.476562 C 50.242188 -21.890625 45.867188 -19.386719 41.90625 -19.386719 C 37.527344 -19.386719 33.773438 -22.722656 32.105469 -30.230469 C 30.230469 -38.152344 33.773438 -47.535156 26.476562 -47.535156 C 23.765625 -47.535156 15.21875 -29.8125 11.050781 -23.351562 L 9.382812 -20.847656 C 8.339844 -19.597656 8.964844 -20.429688 8.339844 -19.804688 C 8.339844 -26.683594 11.257812 -34.609375 13.96875 -38.984375 C 20.015625 -49.410156 24.183594 -52.328125 27.3125 -52.328125 C 31.273438 -52.328125 33.773438 -47.535156 36.691406 -47.535156 C 42.113281 -47.535156 36.691406 -59.417969 26.894531 -59.417969 C 12.300781 -59.417969 0 -32.941406 0 -21.054688 Z M 0 -21.054688 "/></g></g></g></g></g></g></g><g fill="#ffffff" fill-opacity="1"><g transform="translate(45.708837, 170.71601)"><g><path d="M 1.78125 0 L 1.78125 -1.703125 C 5.0625 -1.773438 7.125 -3.015625 7.96875 -5.421875 L 19.421875 -38.484375 C 19.566406 -38.929688 19.71875 -39.226562 19.875 -39.375 C 20.039062 -39.519531 20.332031 -39.59375 20.75 -39.59375 C 20.957031 -39.59375 21.128906 -39.570312 21.265625 -39.53125 C 21.398438 -39.5 21.507812 -39.421875 21.59375 -39.296875 C 21.6875 -39.171875 21.75 -39.070312 21.78125 -39 C 21.820312 -38.925781 21.898438 -38.753906 22.015625 -38.484375 L 33.953125 -3.921875 C 34.234375 -2.992188 34.671875 -2.390625 35.265625 -2.109375 C 35.859375 -1.835938 36.992188 -1.703125 38.671875 -1.703125 L 39.640625 -1.703125 L 39.640625 0 C 37.316406 -0.101562 34.90625 -0.15625 32.40625 -0.15625 C 28.425781 -0.15625 25.769531 -0.101562 24.4375 0 L 24.4375 -1.703125 C 27.5 -1.703125 29.03125 -2.257812 29.03125 -3.375 C 29.03125 -3.445312 28.976562 -3.707031 28.875 -4.15625 L 25.953125 -12.609375 L 12.28125 -12.609375 L 9.71875 -5.375 C 9.644531 -5.226562 9.609375 -4.945312 9.609375 -4.53125 C 9.609375 -3.757812 9.96875 -3.09375 10.6875 -2.53125 C 11.414062 -1.976562 12.445312 -1.703125 13.78125 -1.703125 L 13.78125 0 C 10.226562 -0.101562 8.101562 -0.15625 7.40625 -0.15625 C 6.195312 -0.15625 4.320312 -0.101562 1.78125 0 Z M 12.890625 -14.3125 L 25.328125 -14.3125 L 19.09375 -32.296875 Z M 12.890625 -14.3125 "/></g></g></g><g fill="#ffffff" fill-opacity="1"><g transform="translate(122.153507, 170.71601)"><g><path d="M 2.046875 0 L 2.046875 -1.703125 C 3.378906 -1.703125 4.46875 -1.832031 5.3125 -2.09375 C 6.164062 -2.351562 6.75 -2.726562 7.0625 -3.21875 C 7.375 -3.71875 7.566406 -4.132812 7.640625 -4.46875 C 7.710938 -4.800781 7.75 -5.25 7.75 -5.8125 L 7.75 -33.46875 C 7.75 -34.53125 7.519531 -35.226562 7.0625 -35.5625 C 6.601562 -35.894531 5.375 -36.0625 3.375 -36.0625 L 2.046875 -36.0625 L 2.046875 -37.78125 L 11.390625 -37.78125 C 12.054688 -37.78125 12.476562 -37.722656 12.65625 -37.609375 C 12.84375 -37.492188 13.070312 -37.144531 13.34375 -36.5625 L 25.328125 -5.59375 L 37.4375 -36.734375 C 37.613281 -37.253906 37.785156 -37.554688 37.953125 -37.640625 C 38.128906 -37.734375 38.566406 -37.78125 39.265625 -37.78125 L 48.609375 -37.78125 L 48.609375 -36.0625 L 47.296875 -36.0625 C 45.296875 -36.0625 44.066406 -35.894531 43.609375 -35.5625 C 43.148438 -35.226562 42.921875 -34.53125 42.921875 -33.46875 L 42.921875 -4.328125 C 42.921875 -3.265625 43.148438 -2.5625 43.609375 -2.21875 C 44.066406 -1.875 45.296875 -1.703125 47.296875 -1.703125 L 48.609375 -1.703125 L 48.609375 0 C 47.242188 -0.101562 44.609375 -0.15625 40.703125 -0.15625 C 36.753906 -0.15625 34.097656 -0.101562 32.734375 0 L 32.734375 -1.703125 L 34.078125 -1.703125 C 36.078125 -1.703125 37.300781 -1.867188 37.75 -2.203125 C 38.207031 -2.535156 38.4375 -3.242188 38.4375 -4.328125 L 38.4375 -36.0625 L 38.375 -36.0625 L 24.796875 -1.046875 C 24.546875 -0.347656 24.210938 0 23.796875 0 C 23.347656 0 22.976562 -0.40625 22.6875 -1.21875 L 9.34375 -35.625 L 9.296875 -35.625 L 9.296875 -5.8125 C 9.296875 -5.25 9.328125 -4.800781 9.390625 -4.46875 C 9.460938 -4.132812 9.65625 -3.71875 9.96875 -3.21875 C 10.289062 -2.726562 10.875 -2.351562 11.71875 -2.09375 C 12.5625 -1.832031 13.648438 -1.703125 14.984375 -1.703125 L 14.984375 0 C 11.117188 -0.101562 8.960938 -0.15625 8.515625 -0.15625 C 8.078125 -0.15625 5.921875 -0.101562 2.046875 0 Z M 2.046875 0 "/></g></g></g><g fill="#ffffff" fill-opacity="1"><g transform="translate(207.7531, 170.71601)"><g><path d="M 1.78125 0 L 1.78125 -1.703125 C 5.0625 -1.773438 7.125 -3.015625 7.96875 -5.421875 L 19.421875 -38.484375 C 19.566406 -38.929688 19.71875 -39.226562 19.875 -39.375 C 20.039062 -39.519531 20.332031 -39.59375 20.75 -39.59375 C 20.957031 -39.59375 21.128906 -39.570312 21.265625 -39.53125 C 21.398438 -39.5 21.507812 -39.421875 21.59375 -39.296875 C 21.6875 -39.171875 21.75 -39.070312 21.78125 -39 C 21.820312 -38.925781 21.898438 -38.753906 22.015625 -38.484375 L 33.953125 -3.921875 C 34.234375 -2.992188 34.671875 -2.390625 35.265625 -2.109375 C 35.859375 -1.835938 36.992188 -1.703125 38.671875 -1.703125 L 39.640625 -1.703125 L 39.640625 0 C 37.316406 -0.101562 34.90625 -0.15625 32.40625 -0.15625 C 28.425781 -0.15625 25.769531 -0.101562 24.4375 0 L 24.4375 -1.703125 C 27.5 -1.703125 29.03125 -2.257812 29.03125 -3.375 C 29.03125 -3.445312 28.976562 -3.707031 28.875 -4.15625 L 25.953125 -12.609375 L 12.28125 -12.609375 L 9.71875 -5.375 C 9.644531 -5.226562 9.609375 -4.945312 9.609375 -4.53125 C 9.609375 -3.757812 9.96875 -3.09375 10.6875 -2.53125 C 11.414062 -1.976562 12.445312 -1.703125 13.78125 -1.703125 L 13.78125 0 C 10.226562 -0.101562 8.101562 -0.15625 7.40625 -0.15625 C 6.195312 -0.15625 4.320312 -0.101562 1.78125 0 Z M 12.890625 -14.3125 L 25.328125 -14.3125 L 19.09375 -32.296875 Z M 12.890625 -14.3125 "/></g></g></g><g fill="#ffffff" fill-opacity="1"><g transform="translate(284.197781, 170.71601)"><g><path d="M 1.84375 0 L 1.84375 -1.703125 C 3.164062 -1.703125 4.25 -1.832031 5.09375 -2.09375 C 5.945312 -2.351562 6.523438 -2.726562 6.828125 -3.21875 C 7.140625 -3.71875 7.332031 -4.132812 7.40625 -4.46875 C 7.488281 -4.800781 7.53125 -5.25 7.53125 -5.8125 L 7.53125 -34.671875 C 7.53125 -35.203125 7.460938 -35.53125 7.328125 -35.65625 C 7.191406 -35.78125 6.8125 -35.878906 6.1875 -35.953125 C 5.082031 -36.023438 4.164062 -36.0625 3.4375 -36.0625 L 1.84375 -36.0625 L 1.84375 -37.78125 L 11.234375 -37.78125 C 11.753906 -37.78125 12.085938 -37.742188 12.234375 -37.671875 C 12.378906 -37.597656 12.578125 -37.394531 12.828125 -37.0625 L 32.359375 -8.34375 L 32.359375 -31.984375 C 32.359375 -32.535156 32.320312 -32.972656 32.25 -33.296875 C 32.175781 -33.617188 31.976562 -34.03125 31.65625 -34.53125 C 31.34375 -35.039062 30.765625 -35.421875 29.921875 -35.671875 C 29.078125 -35.929688 27.988281 -36.0625 26.65625 -36.0625 L 26.65625 -37.78125 C 30.53125 -37.675781 32.6875 -37.625 33.125 -37.625 C 33.5625 -37.625 35.71875 -37.675781 39.59375 -37.78125 L 39.59375 -36.0625 C 38.257812 -36.0625 37.171875 -35.929688 36.328125 -35.671875 C 35.484375 -35.421875 34.90625 -35.039062 34.59375 -34.53125 C 34.289062 -34.03125 34.097656 -33.613281 34.015625 -33.28125 C 33.929688 -32.945312 33.890625 -32.515625 33.890625 -31.984375 L 33.890625 -1.4375 C 33.890625 -0.84375 33.851562 -0.453125 33.78125 -0.265625 C 33.707031 -0.0859375 33.492188 0 33.140625 0 C 32.890625 0 32.570312 -0.242188 32.1875 -0.734375 L 9.609375 -33.890625 C 9.472656 -34.109375 9.296875 -34.335938 9.078125 -34.578125 L 9.078125 -5.8125 C 9.078125 -5.25 9.113281 -4.800781 9.1875 -4.46875 C 9.257812 -4.132812 9.453125 -3.71875 9.765625 -3.21875 C 10.078125 -2.726562 10.65625 -2.351562 11.5 -2.09375 C 12.351562 -1.832031 13.441406 -1.703125 14.765625 -1.703125 L 14.765625 0 C 10.898438 -0.101562 8.742188 -0.15625 8.296875 -0.15625 C 7.859375 -0.15625 5.707031 -0.101562 1.84375 0 Z M 1.84375 0 "/></g></g></g><g fill="#ffffff" fill-opacity="1"><g transform="translate(360.642462, 170.71601)"><g><path d="M 1.9375 0 L 1.9375 -1.703125 L 3.265625 -1.703125 C 5.265625 -1.703125 6.492188 -1.867188 6.953125 -2.203125 C 7.410156 -2.535156 7.640625 -3.242188 7.640625 -4.328125 L 7.640625 -33.46875 C 7.640625 -34.53125 7.40625 -35.226562 6.9375 -35.5625 C 6.46875 -35.894531 5.242188 -36.0625 3.265625 -36.0625 L 1.9375 -36.0625 L 1.9375 -37.78125 L 22.171875 -37.78125 C 26.890625 -37.78125 30.890625 -35.898438 34.171875 -32.140625 C 37.460938 -28.378906 39.109375 -23.859375 39.109375 -18.578125 C 39.109375 -13.410156 37.457031 -9.019531 34.15625 -5.40625 C 30.851562 -1.800781 26.859375 0 22.171875 0 Z M 12.390625 -3.921875 C 12.390625 -2.960938 12.523438 -2.351562 12.796875 -2.09375 C 13.066406 -1.832031 13.832031 -1.703125 15.09375 -1.703125 L 20.6875 -1.703125 C 23.113281 -1.703125 25.144531 -2.203125 26.78125 -3.203125 C 28.425781 -4.203125 29.671875 -5.273438 30.515625 -6.421875 C 32.554688 -9.203125 33.578125 -13.253906 33.578125 -18.578125 C 33.578125 -24.179688 32.617188 -28.296875 30.703125 -30.921875 C 28.242188 -34.347656 24.890625 -36.0625 20.640625 -36.0625 L 15.09375 -36.0625 C 13.832031 -36.0625 13.066406 -35.929688 12.796875 -35.671875 C 12.523438 -35.421875 12.390625 -34.8125 12.390625 -33.84375 Z M 12.390625 -3.921875 "/></g></g></g><g fill="#ffffff" fill-opacity="1"><g transform="translate(437.789269, 170.71601)"><g><path d="M 1.78125 0 L 1.78125 -1.703125 C 5.0625 -1.773438 7.125 -3.015625 7.96875 -5.421875 L 19.421875 -38.484375 C 19.566406 -38.929688 19.71875 -39.226562 19.875 -39.375 C 20.039062 -39.519531 20.332031 -39.59375 20.75 -39.59375 C 20.957031 -39.59375 21.128906 -39.570312 21.265625 -39.53125 C 21.398438 -39.5 21.507812 -39.421875 21.59375 -39.296875 C 21.6875 -39.171875 21.75 -39.070312 21.78125 -39 C 21.820312 -38.925781 21.898438 -38.753906 22.015625 -38.484375 L 33.953125 -3.921875 C 34.234375 -2.992188 34.671875 -2.390625 35.265625 -2.109375 C 35.859375 -1.835938 36.992188 -1.703125 38.671875 -1.703125 L 39.640625 -1.703125 L 39.640625 0 C 37.316406 -0.101562 34.90625 -0.15625 32.40625 -0.15625 C 28.425781 -0.15625 25.769531 -0.101562 24.4375 0 L 24.4375 -1.703125 C 27.5 -1.703125 29.03125 -2.257812 29.03125 -3.375 C 29.03125 -3.445312 28.976562 -3.707031 28.875 -4.15625 L 25.953125 -12.609375 L 12.28125 -12.609375 L 9.71875 -5.375 C 9.644531 -5.226562 9.609375 -4.945312 9.609375 -4.53125 C 9.609375 -3.757812 9.96875 -3.09375 10.6875 -2.53125 C 11.414062 -1.976562 12.445312 -1.703125 13.78125 -1.703125 L 13.78125 0 C 10.226562 -0.101562 8.101562 -0.15625 7.40625 -0.15625 C 6.195312 -0.15625 4.320312 -0.101562 1.78125 0 Z M 12.890625 -14.3125 L 25.328125 -14.3125 L 19.09375 -32.296875 Z M 12.890625 -14.3125 "/></g></g></g><g fill="#ffffff" fill-opacity="1"><g transform="translate(204.521696, 205.068896)"><g><path d="M 11.175781 0 L 11.15625 -13.179688 L 10.449219 -13.179688 L 10.449219 -6.171875 C 10.449219 -4.449219 10.449219 -2.40625 10.488281 -0.6875 L 2.960938 -13.179688 L 1.851562 -13.179688 L 1.851562 0 L 2.578125 0 L 2.578125 -7.03125 C 2.578125 -8.75 2.578125 -10.773438 2.539062 -12.492188 L 10.046875 0 Z M 11.175781 0 "/></g></g></g><g fill="#ffffff" fill-opacity="1"><g transform="translate(229.141167, 205.068896)"><g><path d="M 8.921875 -5.023438 L 10.8125 0 L 11.59375 0 L 6.628906 -13.179688 L 5.671875 -13.179688 L 0.648438 0 L 1.433594 0 L 3.285156 -5.023438 Z M 3.535156 -5.65625 L 6.132812 -12.589844 L 8.691406 -5.65625 Z M 3.535156 -5.65625 "/></g></g></g><g fill="#ffffff" fill-opacity="1"><g transform="translate(253.092705, 205.068896)"><g><path d="M 2.578125 0 L 2.578125 -13.179688 L 1.851562 -13.179688 L 1.851562 0 Z M 2.578125 0 "/></g></g></g><g fill="#ffffff" fill-opacity="1"><g transform="translate(269.1434, 205.068896)"><g><path d="M 10.199219 -0.628906 L 2.578125 -0.628906 L 2.578125 -13.179688 L 1.851562 -13.179688 L 1.851562 0 L 10.199219 0 Z M 10.199219 -0.628906 "/></g></g></g><g fill="#ffffff" fill-opacity="1"><g transform="translate(291.682709, 205.068896)"><g/></g></g><g fill="#ffffff" fill-opacity="1"><g transform="translate(307.428063, 205.068896)"><g><path d="M 7.183594 -13.140625 C 6.648438 -13.179688 6.34375 -13.179688 5.710938 -13.179688 L 1.851562 -13.179688 L 1.851562 0 L 5.691406 0 C 6.324219 0 6.703125 0 7.375 -0.078125 C 9.457031 -0.324219 12.398438 -2.214844 12.398438 -6.667969 C 12.398438 -11.15625 9.457031 -12.933594 7.183594 -13.140625 Z M 7.277344 -0.726562 C 6.703125 -0.648438 6.285156 -0.628906 5.65625 -0.628906 L 2.578125 -0.628906 L 2.578125 -12.550781 L 5.691406 -12.550781 C 6.378906 -12.550781 6.703125 -12.550781 7.125 -12.492188 C 9.246094 -12.265625 11.59375 -10.507812 11.59375 -6.667969 C 11.59375 -2.921875 9.398438 -0.992188 7.277344 -0.726562 Z M 7.277344 -0.726562 "/></g></g></g><g fill="#ffffff" fill-opacity="1"><g transform="translate(332.620071, 205.068896)"><g><path d="M 10.199219 -0.628906 L 2.578125 -0.628906 L 2.578125 -6.285156 L 9.570312 -6.285156 L 9.570312 -6.894531 L 2.578125 -6.894531 L 2.578125 -12.570312 L 10.007812 -12.570312 L 10.007812 -13.179688 L 1.851562 -13.179688 L 1.851562 0 L 10.199219 0 Z M 10.199219 -0.628906 "/></g></g></g><g fill="#ffffff" fill-opacity="1"><g transform="translate(355.483811, 205.068896)"><g><path d="M 5.578125 -13.449219 C 3.324219 -13.449219 1.414062 -12.054688 1.414062 -10.046875 C 1.414062 -7.984375 2.75 -7.144531 5.464844 -6.417969 C 8.042969 -5.710938 9.113281 -4.984375 9.113281 -3.171875 C 9.113281 -1.488281 7.582031 -0.363281 5.578125 -0.363281 C 3.554688 -0.363281 1.851562 -1.472656 1.566406 -3.515625 L 0.800781 -3.515625 C 1.089844 -0.972656 3.09375 0.265625 5.558594 0.265625 C 8.042969 0.265625 9.894531 -1.242188 9.894531 -3.285156 C 9.894531 -5.386719 8.539062 -6.359375 5.769531 -7.105469 C 3.285156 -7.792969 2.195312 -8.386719 2.195312 -10.164062 C 2.195312 -11.9375 3.914062 -12.816406 5.519531 -12.816406 C 7.335938 -12.816406 8.652344 -11.691406 8.941406 -9.742188 L 9.703125 -9.742188 C 9.457031 -11.785156 8.097656 -13.449219 5.578125 -13.449219 Z M 5.578125 -13.449219 "/></g></g></g><g fill="#ffffff" fill-opacity="1"><g transform="translate(378.366632, 205.068896)"><g><path d="M 2.578125 0 L 2.578125 -13.179688 L 1.851562 -13.179688 L 1.851562 0 Z M 2.578125 0 "/></g></g></g><g fill="#ffffff" fill-opacity="1"><g transform="translate(394.417332, 205.068896)"><g><path d="M 7.335938 -6 L 7.335938 -5.367188 L 11.441406 -5.367188 C 11.441406 -1.738281 8.863281 -0.363281 6.839844 -0.363281 C 4.011719 -0.363281 1.757812 -2.484375 1.757812 -6.589844 C 1.757812 -10.542969 4.242188 -12.816406 7.066406 -12.816406 C 9.589844 -12.816406 11.058594 -11.269531 11.480469 -9.1875 L 11.519531 -8.996094 L 12.246094 -8.996094 L 12.207031 -9.1875 C 11.785156 -11.59375 10.144531 -13.449219 7.144531 -13.449219 C 3.570312 -13.449219 0.957031 -10.640625 0.957031 -6.550781 C 0.957031 -2.367188 3.324219 0.265625 6.78125 0.265625 C 8.425781 0.265625 10.046875 -0.382812 11.058594 -1.96875 L 11.5 -3.191406 L 11.5 0 L 12.167969 0 L 12.167969 -6 Z M 7.335938 -6 "/></g></g></g><g fill="#ffffff" fill-opacity="1"><g transform="translate(419.819264, 205.068896)"><g><path d="M 11.175781 0 L 11.15625 -13.179688 L 10.449219 -13.179688 L 10.449219 -6.171875 C 10.449219 -4.449219 10.449219 -2.40625 10.488281 -0.6875 L 2.960938 -13.179688 L 1.851562 -13.179688 L 1.851562 0 L 2.578125 0 L 2.578125 -7.03125 C 2.578125 -8.75 2.578125 -10.773438 2.539062 -12.492188 L 10.046875 0 Z M 11.175781 0 "/></g></g></g><g fill="#ffffff" fill-opacity="1"><g transform="translate(444.43874, 205.068896)"><g><path d="M 10.199219 -0.628906 L 2.578125 -0.628906 L 2.578125 -6.285156 L 9.570312 -6.285156 L 9.570312 -6.894531 L 2.578125 -6.894531 L 2.578125 -12.570312 L 10.007812 -12.570312 L 10.007812 -13.179688 L 1.851562 -13.179688 L 1.851562 0 L 10.199219 0 Z M 10.199219 -0.628906 "/></g></g></g><g fill="#ffffff" fill-opacity="1"><g transform="translate(467.302481, 205.068896)"><g><path d="M 9.703125 -3.570312 C 9.550781 -5.023438 8.941406 -6.207031 7.773438 -6.609375 C 9.320312 -6.933594 10.390625 -8.097656 10.390625 -9.800781 C 10.390625 -11.765625 9.1875 -12.835938 7.183594 -13.085938 C 6.570312 -13.160156 6 -13.179688 5.328125 -13.179688 L 1.851562 -13.179688 L 1.851562 0 L 2.578125 0 L 2.578125 -6.265625 L 5.5 -6.265625 C 5.808594 -6.265625 6.246094 -6.265625 6.648438 -6.246094 C 8.175781 -6.171875 8.804688 -4.910156 8.976562 -3.457031 C 9.1875 -1.625 9.457031 -0.839844 9.761719 0 L 10.582031 0 C 10.179688 -0.800781 9.914062 -1.660156 9.703125 -3.570312 Z M 2.578125 -6.894531 L 2.578125 -12.550781 L 5.328125 -12.550781 C 6 -12.550781 6.476562 -12.53125 7.011719 -12.453125 C 8.671875 -12.246094 9.609375 -11.386719 9.609375 -9.742188 C 9.609375 -8.136719 8.558594 -7.066406 6.914062 -6.933594 C 6.359375 -6.894531 6.035156 -6.894531 5.519531 -6.894531 Z M 2.578125 -6.894531 "/></g></g></g></svg>