<svg xmlns="http://www.w3.org/2000/svg" xmlns:xlink="http://www.w3.org/1999/xlink" width="700" zoomAndPan="magnify" viewBox="0 0 525 299.999988" height="400" preserveAspectRatio="xMidYMid meet" version="1.0"><defs><filter x="0%" y="0%" width="100%" height="100%" id="f4f80e7b01"><feColorMatrix values="0 0 0 0 1 0 0 0 0 1 0 0 0 0 1 0 0 0 1 0" color-interpolation-filters="sRGB"/></filter><g/><mask id="e9e48b750c"><g filter="url(#f4f80e7b01)"><rect x="-52.5" width="630" fill="#000000" y="-29.999999" height="359.999986" fill-opacity="0.6392"/></g></mask><clipPath id="f96dfed5a4"><rect x="0" width="412" y="0" height="300"/></clipPath></defs><g mask="url(#e9e48b750c)"><g transform="matrix(1, 0, 0, 1, 62, 0)"><g clip-path="url(#f96dfed5a4)"><g fill="#d6a2b2" fill-opacity="1"><g transform="translate(1.380445, 167.690879)"><g><path d="M 84.609375 5.746094 C 84.609375 0.917969 83.460938 -2.527344 83.460938 -11.726562 C 83.460938 -27.820312 88.976562 -70.125 83.921875 -78.863281 C 83 -80.929688 80.929688 -82.082031 78.632812 -82.082031 C 77.023438 -82.082031 75.414062 -81.621094 74.035156 -80.699219 C 69.207031 -77.480469 64.835938 -68.515625 61.847656 -62.765625 C 45.523438 -29.660156 36.558594 14.253906 26.210938 51.960938 L 20.691406 68.515625 C 19.542969 71.042969 19.542969 72.195312 17.015625 72.882812 L 14.714844 61.617188 C 8.507812 24.371094 13.796875 -37.015625 18.625 -70.585938 C 22.761719 -98.40625 25.75 -114.730469 32.878906 -140.941406 C 34.257812 -145.539062 37.9375 -154.042969 31.5 -154.042969 C 22.300781 -154.042969 10.804688 -83.691406 10.117188 -79.089844 C 8.046875 -64.835938 6.207031 -50.8125 4.597656 -36.328125 L 2.300781 10.117188 C 2.300781 25.0625 3.679688 81.851562 17.015625 81.851562 C 21.613281 81.851562 22.992188 79.550781 25.0625 75.871094 C 29.199219 65.757812 32.648438 55.871094 35.175781 45.292969 C 39.085938 31.730469 42.535156 16.554688 46.214844 2.070312 C 51.042969 -17.703125 61.617188 -54.03125 74.261719 -71.042969 C 75.871094 -73.113281 75.644531 -73.804688 78.402344 -74.492188 C 78.402344 -71.042969 78.863281 -68.976562 78.863281 -67.136719 L 75.414062 -21.152344 C 74.722656 -11.035156 74.722656 14.484375 84.609375 14.484375 C 96.796875 14.484375 110.128906 -37.476562 114.039062 -47.824219 C 120.246094 -62.996094 123.695312 -75.871094 131.28125 -92.65625 C 138.640625 -109.210938 142.777344 -118.636719 152.207031 -134.042969 C 155.652344 -140.019531 160.710938 -147.835938 166.691406 -150.824219 C 171.976562 -139.332031 160.941406 -82.308594 158.875 -69.433594 C 153.816406 -39.316406 151.746094 -19.082031 148.066406 9.886719 L 141.167969 112.429688 C 141.398438 115.1875 141.398438 116.566406 141.628906 120.476562 C 141.859375 124.15625 143.929688 126.453125 145.769531 126.453125 C 147.378906 126.453125 148.988281 124.617188 148.988281 120.476562 C 148.988281 111.96875 148.757812 101.394531 149.445312 93.117188 C 153.125 60.007812 154.734375 28.050781 159.792969 -5.976562 L 174.046875 -100.933594 C 175.199219 -108.75 184.625 -159.101562 166.691406 -159.101562 C 150.597656 -159.101562 124.15625 -95.1875 119.328125 -83 C 110.128906 -59.546875 103.691406 -37.9375 94.957031 -15.175781 C 93.117188 -9.425781 88.75 3.21875 84.609375 5.746094 Z M 84.609375 5.746094 "/></g></g></g><g fill="#d6a2b2" fill-opacity="1"><g transform="translate(177.265964, 167.690879)"><g><path d="M 11.496094 -5.289062 C 6.4375 -15.863281 17.015625 -36.558594 18.625 -43.222656 C 26.671875 -37.9375 20.921875 -7.816406 11.496094 -5.289062 Z M 0 -13.105469 C 0 -1.148438 5.058594 4.828125 11.035156 4.828125 C 17.933594 4.828125 26.441406 -3.21875 29.890625 -19.082031 C 34.949219 -42.765625 23.910156 -46.671875 22.761719 -51.042969 C 23.910156 -52.882812 25.980469 -54.261719 26.671875 -55.871094 C 27.359375 -57.710938 25.980469 -61.386719 22.992188 -61.386719 C 11.726562 -61.386719 0 -23.453125 0 -13.105469 Z M 0 -13.105469 "/></g></g></g><g fill="#d6a2b2" fill-opacity="1"><g transform="translate(217.731125, 167.690879)"><g><path d="M 0.230469 -28.050781 C 0.230469 -20.234375 -0.917969 -8.964844 9.65625 -8.964844 C 16.785156 -8.964844 27.589844 -26.441406 31.269531 -32.878906 C 32.648438 -35.40625 35.867188 -40.695312 37.707031 -41.84375 C 37.707031 -30.808594 38.625 -11.726562 53.800781 -11.726562 C 60.699219 -11.726562 68.285156 -16.554688 74.492188 -22.300781 C 77.253906 -24.832031 87.828125 -33.566406 87.828125 -37.476562 C 87.828125 -40.003906 85.988281 -40.464844 84.148438 -40.464844 C 79.78125 -40.464844 64.605469 -19.082031 54.492188 -19.082031 C 50.121094 -19.082031 46.671875 -22.992188 45.292969 -34.027344 C 44.605469 -40.003906 47.59375 -55.179688 41.386719 -55.179688 C 37.015625 -55.179688 35.636719 -51.5 32.648438 -47.132812 L 18.851562 -26.898438 C 16.554688 -23.910156 14.023438 -19.542969 10.347656 -18.394531 C 6.898438 -33.796875 20.921875 -57.9375 20.921875 -58.859375 C 20.921875 -60.929688 20.234375 -60.929688 20.003906 -62.539062 C 18.394531 -63.457031 17.015625 -63.6875 15.863281 -63.6875 C 14.023438 -63.6875 12.414062 -62.765625 10.804688 -60.929688 C 5.058594 -53.570312 0.230469 -37.9375 0.230469 -28.050781 Z M 0.230469 -28.050781 "/></g></g></g><g fill="#d6a2b2" fill-opacity="1"><g transform="translate(295.44263, 167.690879)"><g><path d="M 3.21875 -0.917969 C 10.347656 -0.917969 7.585938 -8.738281 8.964844 -14.714844 C 9.886719 -20.234375 11.957031 -24.832031 14.253906 -28.738281 C 17.933594 -34.71875 19.082031 -34.71875 27.820312 -34.71875 C 30.347656 -34.71875 33.796875 -34.488281 36.785156 -34.488281 C 41.386719 -34.488281 45.0625 -34.949219 45.0625 -38.167969 C 45.0625 -41.15625 37.9375 -41.613281 31.269531 -41.613281 C 27.359375 -41.613281 23.453125 -41.386719 21.382812 -41.386719 C 14.253906 -41.386719 12.875 -37.015625 9.425781 -34.71875 C 9.425781 -37.707031 9.886719 -37.476562 9.886719 -40.695312 C 9.886719 -42.996094 9.886719 -45.753906 10.117188 -48.054688 C 10.804688 -54.492188 11.957031 -58.859375 5.746094 -58.859375 C 0.691406 -58.859375 0.230469 -34.949219 0.230469 -30.808594 C 0.460938 -25.0625 0.230469 -19.3125 0.460938 -13.796875 C 0.460938 -12.1875 -1.378906 -0.917969 3.21875 -0.917969 Z M 3.21875 -0.917969 "/></g></g></g><g fill="#d6a2b2" fill-opacity="1"><g transform="translate(332.9189, 167.690879)"><g><path d="M 0 -23.222656 C 0 -14.945312 0.691406 -11.035156 9.195312 -11.035156 C 15.863281 -11.035156 22.992188 -32.648438 27.359375 -35.636719 C 27.359375 -25.75 34.71875 -13.796875 46.214844 -13.796875 C 50.121094 -13.796875 54.492188 -15.175781 59.089844 -18.394531 L 65.988281 -23.910156 C 77.710938 -35.175781 76.332031 -40.925781 72.882812 -40.925781 C 71.503906 -40.925781 69.894531 -40.234375 68.746094 -38.625 C 65.527344 -35.175781 64.835938 -33.109375 60.46875 -29.199219 C 55.410156 -24.140625 50.582031 -21.382812 46.214844 -21.382812 C 41.386719 -21.382812 37.246094 -25.0625 35.40625 -33.339844 C 33.339844 -42.074219 37.246094 -52.421875 29.199219 -52.421875 C 26.210938 -52.421875 16.785156 -32.878906 12.1875 -25.75 L 10.347656 -22.992188 C 9.195312 -21.613281 9.886719 -22.53125 9.195312 -21.84375 C 9.195312 -29.429688 12.414062 -38.167969 15.40625 -42.996094 C 22.070312 -54.492188 26.671875 -57.710938 30.121094 -57.710938 C 34.488281 -57.710938 37.246094 -52.421875 40.464844 -52.421875 C 46.445312 -52.421875 40.464844 -65.527344 29.660156 -65.527344 C 13.566406 -65.527344 0 -36.328125 0 -23.222656 Z M 0 -23.222656 "/></g></g></g></g></g></g><g fill="#af1b51" fill-opacity="1"><g transform="translate(23.416813, 160.790581)"><g><path d="M 1.96875 0 L 1.96875 -1.875 C 5.582031 -1.957031 7.851562 -3.328125 8.78125 -5.984375 L 21.421875 -42.4375 C 21.578125 -42.9375 21.742188 -43.265625 21.921875 -43.421875 C 22.097656 -43.585938 22.414062 -43.671875 22.875 -43.671875 C 23.113281 -43.671875 23.304688 -43.648438 23.453125 -43.609375 C 23.597656 -43.566406 23.722656 -43.472656 23.828125 -43.328125 C 23.929688 -43.191406 24 -43.082031 24.03125 -43 C 24.070312 -42.925781 24.15625 -42.738281 24.28125 -42.4375 L 37.4375 -4.3125 C 37.757812 -3.300781 38.242188 -2.640625 38.890625 -2.328125 C 39.546875 -2.023438 40.800781 -1.875 42.65625 -1.875 L 43.71875 -1.875 L 43.71875 0 C 41.15625 -0.113281 38.5 -0.171875 35.75 -0.171875 C 31.351562 -0.171875 28.421875 -0.113281 26.953125 0 L 26.953125 -1.875 C 30.328125 -1.875 32.015625 -2.488281 32.015625 -3.71875 C 32.015625 -3.800781 31.957031 -4.09375 31.84375 -4.59375 L 28.625 -13.90625 L 13.546875 -13.90625 L 10.71875 -5.921875 C 10.644531 -5.765625 10.609375 -5.457031 10.609375 -5 C 10.609375 -4.144531 11.003906 -3.410156 11.796875 -2.796875 C 12.585938 -2.179688 13.71875 -1.875 15.1875 -1.875 L 15.1875 0 C 11.28125 -0.113281 8.9375 -0.171875 8.15625 -0.171875 C 6.832031 -0.171875 4.769531 -0.113281 1.96875 0 Z M 14.203125 -15.78125 L 27.9375 -15.78125 L 21.0625 -35.625 Z M 14.203125 -15.78125 "/></g></g></g><g fill="#af1b51" fill-opacity="1"><g transform="translate(107.722062, 160.790581)"><g><path d="M 2.265625 0 L 2.265625 -1.875 C 3.734375 -1.875 4.929688 -2.015625 5.859375 -2.296875 C 6.796875 -2.585938 7.4375 -3.003906 7.78125 -3.546875 C 8.132812 -4.097656 8.347656 -4.554688 8.421875 -4.921875 C 8.503906 -5.296875 8.546875 -5.789062 8.546875 -6.40625 L 8.546875 -36.90625 C 8.546875 -38.070312 8.289062 -38.835938 7.78125 -39.203125 C 7.28125 -39.578125 5.925781 -39.765625 3.71875 -39.765625 L 2.265625 -39.765625 L 2.265625 -41.671875 L 12.5625 -41.671875 C 13.300781 -41.671875 13.769531 -41.601562 13.96875 -41.46875 C 14.164062 -41.34375 14.414062 -40.960938 14.71875 -40.328125 L 27.9375 -6.171875 L 41.28125 -40.515625 C 41.476562 -41.085938 41.671875 -41.421875 41.859375 -41.515625 C 42.046875 -41.617188 42.53125 -41.671875 43.3125 -41.671875 L 53.609375 -41.671875 L 53.609375 -39.765625 L 52.15625 -39.765625 C 49.945312 -39.765625 48.585938 -39.578125 48.078125 -39.203125 C 47.578125 -38.835938 47.328125 -38.070312 47.328125 -36.90625 L 47.328125 -4.765625 C 47.328125 -3.597656 47.578125 -2.820312 48.078125 -2.4375 C 48.585938 -2.0625 49.945312 -1.875 52.15625 -1.875 L 53.609375 -1.875 L 53.609375 0 C 52.097656 -0.113281 49.191406 -0.171875 44.890625 -0.171875 C 40.535156 -0.171875 37.601562 -0.113281 36.09375 0 L 36.09375 -1.875 L 37.59375 -1.875 C 39.789062 -1.875 41.140625 -2.054688 41.640625 -2.421875 C 42.140625 -2.796875 42.390625 -3.578125 42.390625 -4.765625 L 42.390625 -39.765625 L 42.328125 -39.765625 L 27.34375 -1.15625 C 27.0625 -0.382812 26.691406 0 26.234375 0 C 25.742188 0 25.335938 -0.445312 25.015625 -1.34375 L 10.3125 -39.28125 L 10.25 -39.28125 L 10.25 -6.40625 C 10.25 -5.789062 10.285156 -5.296875 10.359375 -4.921875 C 10.441406 -4.554688 10.65625 -4.097656 11 -3.546875 C 11.351562 -3.003906 11.992188 -2.585938 12.921875 -2.296875 C 13.859375 -2.015625 15.0625 -1.875 16.53125 -1.875 L 16.53125 0 C 12.257812 -0.113281 9.878906 -0.171875 9.390625 -0.171875 C 8.910156 -0.171875 6.535156 -0.113281 2.265625 0 Z M 2.265625 0 "/></g></g></g><g fill="#af1b51" fill-opacity="1"><g transform="translate(202.123607, 160.790581)"><g><path d="M 1.96875 0 L 1.96875 -1.875 C 5.582031 -1.957031 7.851562 -3.328125 8.78125 -5.984375 L 21.421875 -42.4375 C 21.578125 -42.9375 21.742188 -43.265625 21.921875 -43.421875 C 22.097656 -43.585938 22.414062 -43.671875 22.875 -43.671875 C 23.113281 -43.671875 23.304688 -43.648438 23.453125 -43.609375 C 23.597656 -43.566406 23.722656 -43.472656 23.828125 -43.328125 C 23.929688 -43.191406 24 -43.082031 24.03125 -43 C 24.070312 -42.925781 24.15625 -42.738281 24.28125 -42.4375 L 37.4375 -4.3125 C 37.757812 -3.300781 38.242188 -2.640625 38.890625 -2.328125 C 39.546875 -2.023438 40.800781 -1.875 42.65625 -1.875 L 43.71875 -1.875 L 43.71875 0 C 41.15625 -0.113281 38.5 -0.171875 35.75 -0.171875 C 31.351562 -0.171875 28.421875 -0.113281 26.953125 0 L 26.953125 -1.875 C 30.328125 -1.875 32.015625 -2.488281 32.015625 -3.71875 C 32.015625 -3.800781 31.957031 -4.09375 31.84375 -4.59375 L 28.625 -13.90625 L 13.546875 -13.90625 L 10.71875 -5.921875 C 10.644531 -5.765625 10.609375 -5.457031 10.609375 -5 C 10.609375 -4.144531 11.003906 -3.410156 11.796875 -2.796875 C 12.585938 -2.179688 13.71875 -1.875 15.1875 -1.875 L 15.1875 0 C 11.28125 -0.113281 8.9375 -0.171875 8.15625 -0.171875 C 6.832031 -0.171875 4.769531 -0.113281 1.96875 0 Z M 14.203125 -15.78125 L 27.9375 -15.78125 L 21.0625 -35.625 Z M 14.203125 -15.78125 "/></g></g></g><g fill="#af1b51" fill-opacity="1"><g transform="translate(286.428869, 160.790581)"><g><path d="M 2.03125 0 L 2.03125 -1.875 C 3.5 -1.875 4.695312 -2.015625 5.625 -2.296875 C 6.5625 -2.585938 7.195312 -3.003906 7.53125 -3.546875 C 7.875 -4.097656 8.085938 -4.554688 8.171875 -4.921875 C 8.265625 -5.296875 8.3125 -5.789062 8.3125 -6.40625 L 8.3125 -38.25 C 8.3125 -38.820312 8.234375 -39.175781 8.078125 -39.3125 C 7.929688 -39.457031 7.515625 -39.566406 6.828125 -39.640625 C 5.609375 -39.722656 4.59375 -39.765625 3.78125 -39.765625 L 2.03125 -39.765625 L 2.03125 -41.671875 L 12.390625 -41.671875 C 12.960938 -41.671875 13.328125 -41.628906 13.484375 -41.546875 C 13.648438 -41.472656 13.867188 -41.242188 14.140625 -40.859375 L 35.6875 -9.203125 L 35.6875 -35.265625 C 35.6875 -35.878906 35.644531 -36.363281 35.5625 -36.71875 C 35.476562 -37.082031 35.265625 -37.539062 34.921875 -38.09375 C 34.578125 -38.644531 33.9375 -39.0625 33 -39.34375 C 32.070312 -39.625 30.867188 -39.765625 29.390625 -39.765625 L 29.390625 -41.671875 C 33.660156 -41.546875 36.039062 -41.484375 36.53125 -41.484375 C 37.019531 -41.484375 39.398438 -41.546875 43.671875 -41.671875 L 43.671875 -39.765625 C 42.203125 -39.765625 41 -39.625 40.0625 -39.34375 C 39.125 -39.0625 38.488281 -38.644531 38.15625 -38.09375 C 37.820312 -37.539062 37.609375 -37.078125 37.515625 -36.703125 C 37.421875 -36.335938 37.375 -35.859375 37.375 -35.265625 L 37.375 -1.578125 C 37.375 -0.921875 37.332031 -0.492188 37.25 -0.296875 C 37.175781 -0.0976562 36.941406 0 36.546875 0 C 36.265625 0 35.914062 -0.265625 35.5 -0.796875 L 10.609375 -37.375 C 10.441406 -37.613281 10.242188 -37.863281 10.015625 -38.125 L 10.015625 -6.40625 C 10.015625 -5.789062 10.050781 -5.296875 10.125 -4.921875 C 10.207031 -4.554688 10.421875 -4.097656 10.765625 -3.546875 C 11.109375 -3.003906 11.75 -2.585938 12.6875 -2.296875 C 13.625 -2.015625 14.828125 -1.875 16.296875 -1.875 L 16.296875 0 C 12.023438 -0.113281 9.644531 -0.171875 9.15625 -0.171875 C 8.664062 -0.171875 6.289062 -0.113281 2.03125 0 Z M 2.03125 0 "/></g></g></g><g fill="#af1b51" fill-opacity="1"><g transform="translate(370.73413, 160.790581)"><g><path d="M 2.140625 0 L 2.140625 -1.875 L 3.609375 -1.875 C 5.804688 -1.875 7.15625 -2.054688 7.65625 -2.421875 C 8.164062 -2.796875 8.421875 -3.578125 8.421875 -4.765625 L 8.421875 -36.90625 C 8.421875 -38.070312 8.160156 -38.835938 7.640625 -39.203125 C 7.128906 -39.578125 5.785156 -39.765625 3.609375 -39.765625 L 2.140625 -39.765625 L 2.140625 -41.671875 L 24.453125 -41.671875 C 29.648438 -41.671875 34.0625 -39.59375 37.6875 -35.4375 C 41.3125 -31.289062 43.125 -26.3125 43.125 -20.5 C 43.125 -14.789062 41.300781 -9.945312 37.65625 -5.96875 C 34.019531 -1.988281 29.617188 0 24.453125 0 Z M 13.671875 -4.3125 C 13.671875 -3.257812 13.816406 -2.585938 14.109375 -2.296875 C 14.410156 -2.015625 15.257812 -1.875 16.65625 -1.875 L 22.8125 -1.875 C 25.5 -1.875 27.742188 -2.425781 29.546875 -3.53125 C 31.347656 -4.632812 32.71875 -5.820312 33.65625 -7.09375 C 35.894531 -10.144531 37.015625 -14.613281 37.015625 -20.5 C 37.015625 -26.664062 35.960938 -31.203125 33.859375 -34.109375 C 31.140625 -37.878906 27.4375 -39.765625 22.75 -39.765625 L 16.65625 -39.765625 C 15.257812 -39.765625 14.410156 -39.625 14.109375 -39.34375 C 13.816406 -39.0625 13.671875 -38.390625 13.671875 -37.328125 Z M 13.671875 -4.3125 "/></g></g></g><g fill="#af1b51" fill-opacity="1"><g transform="translate(455.813714, 160.790581)"><g><path d="M 1.96875 0 L 1.96875 -1.875 C 5.582031 -1.957031 7.851562 -3.328125 8.78125 -5.984375 L 21.421875 -42.4375 C 21.578125 -42.9375 21.742188 -43.265625 21.921875 -43.421875 C 22.097656 -43.585938 22.414062 -43.671875 22.875 -43.671875 C 23.113281 -43.671875 23.304688 -43.648438 23.453125 -43.609375 C 23.597656 -43.566406 23.722656 -43.472656 23.828125 -43.328125 C 23.929688 -43.191406 24 -43.082031 24.03125 -43 C 24.070312 -42.925781 24.15625 -42.738281 24.28125 -42.4375 L 37.4375 -4.3125 C 37.757812 -3.300781 38.242188 -2.640625 38.890625 -2.328125 C 39.546875 -2.023438 40.800781 -1.875 42.65625 -1.875 L 43.71875 -1.875 L 43.71875 0 C 41.15625 -0.113281 38.5 -0.171875 35.75 -0.171875 C 31.351562 -0.171875 28.421875 -0.113281 26.953125 0 L 26.953125 -1.875 C 30.328125 -1.875 32.015625 -2.488281 32.015625 -3.71875 C 32.015625 -3.800781 31.957031 -4.09375 31.84375 -4.59375 L 28.625 -13.90625 L 13.546875 -13.90625 L 10.71875 -5.921875 C 10.644531 -5.765625 10.609375 -5.457031 10.609375 -5 C 10.609375 -4.144531 11.003906 -3.410156 11.796875 -2.796875 C 12.585938 -2.179688 13.71875 -1.875 15.1875 -1.875 L 15.1875 0 C 11.28125 -0.113281 8.9375 -0.171875 8.15625 -0.171875 C 6.832031 -0.171875 4.769531 -0.113281 1.96875 0 Z M 14.203125 -15.78125 L 27.9375 -15.78125 L 21.0625 -35.625 Z M 14.203125 -15.78125 "/></g></g></g><g fill="#a6a6a6" fill-opacity="1"><g transform="translate(198.559957, 198.675859)"><g><path d="M 12.324219 0 L 12.304688 -14.535156 L 11.523438 -14.535156 L 11.523438 -6.804688 C 11.523438 -4.910156 11.523438 -2.65625 11.566406 -0.757812 L 3.265625 -14.535156 L 2.042969 -14.535156 L 2.042969 0 L 2.84375 0 L 2.84375 -7.753906 C 2.84375 -9.648438 2.84375 -11.882812 2.800781 -13.777344 L 11.082031 0 Z M 12.324219 0 "/></g></g></g><g fill="#a6a6a6" fill-opacity="1"><g transform="translate(225.710976, 198.675859)"><g><path d="M 9.839844 -5.539062 L 11.921875 0 L 12.789062 0 L 7.308594 -14.535156 L 6.257812 -14.535156 L 0.714844 0 L 1.578125 0 L 3.625 -5.539062 Z M 3.898438 -6.234375 L 6.761719 -13.882812 L 9.585938 -6.234375 Z M 3.898438 -6.234375 "/></g></g></g><g fill="#a6a6a6" fill-opacity="1"><g transform="translate(252.12538, 198.675859)"><g><path d="M 2.84375 0 L 2.84375 -14.535156 L 2.042969 -14.535156 L 2.042969 0 Z M 2.84375 0 "/></g></g></g><g fill="#a6a6a6" fill-opacity="1"><g transform="translate(269.82652, 198.675859)"><g><path d="M 11.25 -0.695312 L 2.84375 -0.695312 L 2.84375 -14.535156 L 2.042969 -14.535156 L 2.042969 0 L 11.25 0 Z M 11.25 -0.695312 "/></g></g></g><g fill="#a6a6a6" fill-opacity="1"><g transform="translate(294.683479, 198.675859)"><g/></g></g><g fill="#a6a6a6" fill-opacity="1"><g transform="translate(312.047881, 198.675859)"><g><path d="M 7.921875 -14.492188 C 7.332031 -14.535156 6.992188 -14.535156 6.300781 -14.535156 L 2.042969 -14.535156 L 2.042969 0 L 6.277344 0 C 6.972656 0 7.394531 0 8.132812 -0.0859375 C 10.429688 -0.359375 13.671875 -2.445312 13.671875 -7.351562 C 13.671875 -12.304688 10.429688 -14.261719 7.921875 -14.492188 Z M 8.027344 -0.800781 C 7.394531 -0.714844 6.929688 -0.695312 6.234375 -0.695312 L 2.84375 -0.695312 L 2.84375 -13.839844 L 6.277344 -13.839844 C 7.035156 -13.839844 7.394531 -13.839844 7.859375 -13.777344 C 10.195312 -13.523438 12.789062 -11.585938 12.789062 -7.351562 C 12.789062 -3.222656 10.363281 -1.09375 8.027344 -0.800781 Z M 8.027344 -0.800781 "/></g></g></g><g fill="#a6a6a6" fill-opacity="1"><g transform="translate(339.830308, 198.675859)"><g><path d="M 11.25 -0.695312 L 2.84375 -0.695312 L 2.84375 -6.929688 L 10.554688 -6.929688 L 10.554688 -7.605469 L 2.84375 -7.605469 L 2.84375 -13.863281 L 11.039062 -13.863281 L 11.039062 -14.535156 L 2.042969 -14.535156 L 2.042969 0 L 11.25 0 Z M 11.25 -0.695312 "/></g></g></g><g fill="#a6a6a6" fill-opacity="1"><g transform="translate(365.04506, 198.675859)"><g><path d="M 6.152344 -14.832031 C 3.664062 -14.832031 1.558594 -13.292969 1.558594 -11.082031 C 1.558594 -8.804688 3.035156 -7.878906 6.023438 -7.078125 C 8.867188 -6.300781 10.046875 -5.5 10.046875 -3.496094 C 10.046875 -1.644531 8.363281 -0.398438 6.152344 -0.398438 C 3.917969 -0.398438 2.042969 -1.621094 1.726562 -3.875 L 0.886719 -3.875 C 1.199219 -1.074219 3.414062 0.296875 6.128906 0.296875 C 8.867188 0.296875 10.914062 -1.371094 10.914062 -3.625 C 10.914062 -5.941406 9.417969 -7.015625 6.363281 -7.835938 C 3.625 -8.59375 2.421875 -9.25 2.421875 -11.207031 C 2.421875 -13.167969 4.320312 -14.136719 6.089844 -14.136719 C 8.089844 -14.136719 9.542969 -12.894531 9.859375 -10.742188 L 10.703125 -10.742188 C 10.429688 -13 8.933594 -14.832031 6.152344 -14.832031 Z M 6.152344 -14.832031 "/></g></g></g><g fill="#a6a6a6" fill-opacity="1"><g transform="translate(390.280853, 198.675859)"><g><path d="M 2.84375 0 L 2.84375 -14.535156 L 2.042969 -14.535156 L 2.042969 0 Z M 2.84375 0 "/></g></g></g><g fill="#a6a6a6" fill-opacity="1"><g transform="translate(407.981999, 198.675859)"><g><path d="M 8.089844 -6.613281 L 8.089844 -5.917969 L 12.617188 -5.917969 C 12.617188 -1.917969 9.773438 -0.398438 7.542969 -0.398438 C 4.425781 -0.398438 1.9375 -2.738281 1.9375 -7.269531 C 1.9375 -11.628906 4.675781 -14.136719 7.792969 -14.136719 C 10.574219 -14.136719 12.199219 -12.429688 12.660156 -10.132812 L 12.703125 -9.921875 L 13.503906 -9.921875 L 13.460938 -10.132812 C 13 -12.789062 11.1875 -14.832031 7.878906 -14.832031 C 3.941406 -14.832031 1.054688 -11.734375 1.054688 -7.226562 C 1.054688 -2.613281 3.664062 0.296875 7.480469 0.296875 C 9.289062 0.296875 11.082031 -0.421875 12.199219 -2.167969 L 12.683594 -3.519531 L 12.683594 0 L 13.417969 0 L 13.417969 -6.613281 Z M 8.089844 -6.613281 "/></g></g></g><g fill="#a6a6a6" fill-opacity="1"><g transform="translate(435.995937, 198.675859)"><g><path d="M 12.324219 0 L 12.304688 -14.535156 L 11.523438 -14.535156 L 11.523438 -6.804688 C 11.523438 -4.910156 11.523438 -2.65625 11.566406 -0.757812 L 3.265625 -14.535156 L 2.042969 -14.535156 L 2.042969 0 L 2.84375 0 L 2.84375 -7.753906 C 2.84375 -9.648438 2.84375 -11.882812 2.800781 -13.777344 L 11.082031 0 Z M 12.324219 0 "/></g></g></g><g fill="#a6a6a6" fill-opacity="1"><g transform="translate(463.146961, 198.675859)"><g><path d="M 11.25 -0.695312 L 2.84375 -0.695312 L 2.84375 -6.929688 L 10.554688 -6.929688 L 10.554688 -7.605469 L 2.84375 -7.605469 L 2.84375 -13.863281 L 11.039062 -13.863281 L 11.039062 -14.535156 L 2.042969 -14.535156 L 2.042969 0 L 11.25 0 Z M 11.25 -0.695312 "/></g></g></g><g fill="#a6a6a6" fill-opacity="1"><g transform="translate(488.361712, 198.675859)"><g><path d="M 10.703125 -3.941406 C 10.535156 -5.539062 9.859375 -6.847656 8.574219 -7.289062 C 10.28125 -7.648438 11.460938 -8.933594 11.460938 -10.808594 C 11.460938 -12.976562 10.132812 -14.15625 7.921875 -14.429688 C 7.246094 -14.515625 6.613281 -14.535156 5.878906 -14.535156 L 2.042969 -14.535156 L 2.042969 0 L 2.84375 0 L 2.84375 -6.910156 L 6.066406 -6.910156 C 6.402344 -6.910156 6.890625 -6.910156 7.332031 -6.890625 C 9.015625 -6.804688 9.710938 -5.414062 9.902344 -3.8125 C 10.132812 -1.789062 10.429688 -0.925781 10.765625 0 L 11.671875 0 C 11.230469 -0.886719 10.933594 -1.832031 10.703125 -3.941406 Z M 2.84375 -7.605469 L 2.84375 -13.839844 L 5.878906 -13.839844 C 6.613281 -13.839844 7.140625 -13.820312 7.730469 -13.734375 C 9.5625 -13.503906 10.597656 -12.554688 10.597656 -10.742188 C 10.597656 -8.972656 9.4375 -7.792969 7.625 -7.648438 C 7.015625 -7.605469 6.65625 -7.605469 6.089844 -7.605469 Z M 2.84375 -7.605469 "/></g></g></g></svg>