<svg xmlns="http://www.w3.org/2000/svg" xmlns:xlink="http://www.w3.org/1999/xlink" width="800" zoomAndPan="magnify" viewBox="0 0 600 299.999988" height="400" preserveAspectRatio="xMidYMid meet" version="1.0"><defs><filter x="0%" y="0%" width="100%" height="100%" id="050ef08bbb"><feColorMatrix values="0 0 0 0 1 0 0 0 0 1 0 0 0 0 1 0 0 0 1 0" color-interpolation-filters="sRGB"/></filter><g/><mask id="639a3f5c8b"><g filter="url(#050ef08bbb)"><rect x="-60" width="720" fill="#000000" y="-29.999999" height="359.999986" fill-opacity="0.6392"/></g></mask><clipPath id="c78fc5f470"><rect x="0" width="384" y="0" height="300"/></clipPath></defs><g mask="url(#639a3f5c8b)"><g transform="matrix(1, 0, 0, 1, 106, 0)"><g clip-path="url(#c78fc5f470)"><g fill="#ffc2d8" fill-opacity="1"><g transform="translate(0.961925, 168.998215)"><g><path d="M 78.984375 5.367188 C 78.984375 0.859375 77.910156 -2.359375 77.910156 -10.945312 C 77.910156 -25.96875 83.058594 -65.460938 78.339844 -73.617188 C 77.480469 -75.546875 75.546875 -76.621094 73.402344 -76.621094 C 71.898438 -76.621094 70.398438 -76.191406 69.109375 -75.332031 C 64.601562 -72.328125 60.523438 -63.957031 57.734375 -58.59375 C 42.496094 -27.6875 34.125 13.308594 24.46875 48.503906 L 19.316406 63.957031 C 18.242188 66.320312 18.242188 67.394531 15.882812 68.035156 L 13.734375 57.519531 C 7.941406 22.75 12.878906 -34.554688 17.382812 -65.890625 C 21.246094 -91.859375 24.039062 -107.097656 30.691406 -131.566406 C 31.980469 -135.859375 35.414062 -143.800781 29.402344 -143.800781 C 20.820312 -143.800781 10.085938 -78.125 9.445312 -73.832031 C 7.511719 -60.523438 5.792969 -47.433594 4.292969 -33.910156 L 2.144531 9.445312 C 2.144531 23.394531 3.433594 76.40625 15.882812 76.40625 C 20.175781 76.40625 21.460938 74.261719 23.394531 70.828125 C 27.257812 61.382812 30.476562 52.152344 32.835938 42.28125 C 36.488281 29.617188 39.707031 15.453125 43.140625 1.929688 C 47.648438 -16.527344 57.519531 -50.4375 69.324219 -66.320312 C 70.828125 -68.25 70.613281 -68.894531 73.1875 -69.539062 C 73.1875 -66.320312 73.617188 -64.386719 73.617188 -62.671875 L 70.398438 -19.746094 C 69.753906 -10.300781 69.753906 13.519531 78.984375 13.519531 C 90.359375 13.519531 102.804688 -34.984375 106.453125 -44.640625 C 112.25 -58.808594 115.46875 -70.828125 122.550781 -86.496094 C 129.417969 -101.949219 133.28125 -110.746094 142.082031 -125.128906 C 145.300781 -130.707031 150.023438 -138.003906 155.605469 -140.792969 C 160.539062 -130.0625 150.238281 -76.835938 148.308594 -64.816406 C 143.585938 -36.699219 141.652344 -17.8125 138.21875 9.230469 L 131.78125 104.953125 C 131.996094 107.527344 131.996094 108.816406 132.210938 112.464844 C 132.425781 115.898438 134.355469 118.042969 136.074219 118.042969 C 137.574219 118.042969 139.078125 116.328125 139.078125 112.464844 C 139.078125 104.523438 138.863281 94.648438 139.507812 86.921875 C 142.941406 56.015625 144.445312 26.183594 149.164062 -5.582031 L 162.472656 -94.222656 C 163.546875 -101.519531 172.34375 -148.519531 155.605469 -148.519531 C 140.582031 -148.519531 115.898438 -88.855469 111.390625 -77.480469 C 102.804688 -55.589844 96.796875 -35.414062 88.640625 -14.164062 C 86.921875 -8.800781 82.847656 3.003906 78.984375 5.367188 Z M 78.984375 5.367188 "/></g></g></g><g fill="#ffc2d8" fill-opacity="1"><g transform="translate(165.14956, 168.998215)"><g><path d="M 10.730469 -4.9375 C 6.007812 -14.808594 15.882812 -34.125 17.382812 -40.351562 C 24.898438 -35.414062 19.53125 -7.296875 10.730469 -4.9375 Z M 0 -12.234375 C 0 -1.074219 4.722656 4.507812 10.300781 4.507812 C 16.742188 4.507812 24.683594 -3.003906 27.902344 -17.8125 C 32.625 -39.921875 22.320312 -43.570312 21.246094 -47.648438 C 22.320312 -49.363281 24.253906 -50.652344 24.898438 -52.152344 C 25.539062 -53.871094 24.253906 -57.304688 21.460938 -57.304688 C 10.945312 -57.304688 0 -21.890625 0 -12.234375 Z M 0 -12.234375 "/></g></g></g><g fill="#ffc2d8" fill-opacity="1"><g transform="translate(202.923445, 168.998215)"><g><path d="M 0.214844 -26.183594 C 0.214844 -18.886719 -0.859375 -8.371094 9.015625 -8.371094 C 15.667969 -8.371094 25.753906 -24.683594 29.1875 -30.691406 C 30.476562 -33.050781 33.480469 -37.988281 35.199219 -39.0625 C 35.199219 -28.761719 36.058594 -10.945312 50.222656 -10.945312 C 56.660156 -10.945312 63.742188 -15.453125 69.539062 -20.820312 C 72.113281 -23.179688 81.988281 -31.335938 81.988281 -34.984375 C 81.988281 -37.34375 80.269531 -37.773438 78.554688 -37.773438 C 74.476562 -37.773438 60.308594 -17.8125 50.867188 -17.8125 C 46.789062 -17.8125 43.570312 -21.460938 42.28125 -31.765625 C 41.636719 -37.34375 44.425781 -51.511719 38.632812 -51.511719 C 34.554688 -51.511719 33.265625 -48.078125 30.476562 -44 L 17.597656 -25.109375 C 15.453125 -22.320312 13.09375 -18.242188 9.65625 -17.171875 C 6.4375 -31.550781 19.53125 -54.085938 19.53125 -54.945312 C 19.53125 -56.875 18.886719 -56.875 18.671875 -58.378906 C 17.171875 -59.238281 15.882812 -59.453125 14.808594 -59.453125 C 13.09375 -59.453125 11.589844 -58.59375 10.085938 -56.875 C 4.722656 -50.007812 0.214844 -35.414062 0.214844 -26.183594 Z M 0.214844 -26.183594 "/></g></g></g><g fill="#ffc2d8" fill-opacity="1"><g transform="translate(275.466474, 168.998215)"><g><path d="M 3.003906 -0.859375 C 9.65625 -0.859375 7.082031 -8.15625 8.371094 -13.734375 C 9.230469 -18.886719 11.160156 -23.179688 13.308594 -26.828125 C 16.742188 -32.410156 17.8125 -32.410156 25.96875 -32.410156 C 28.332031 -32.410156 31.550781 -32.195312 34.339844 -32.195312 C 38.632812 -32.195312 42.066406 -32.625 42.066406 -35.628906 C 42.066406 -38.417969 35.414062 -38.847656 29.1875 -38.847656 C 25.539062 -38.847656 21.890625 -38.632812 19.960938 -38.632812 C 13.308594 -38.632812 12.019531 -34.554688 8.800781 -32.410156 C 8.800781 -35.199219 9.230469 -34.984375 9.230469 -37.988281 C 9.230469 -40.136719 9.230469 -42.710938 9.445312 -44.855469 C 10.085938 -50.867188 11.160156 -54.945312 5.367188 -54.945312 C 0.644531 -54.945312 0.214844 -32.625 0.214844 -28.761719 C 0.429688 -23.394531 0.214844 -18.027344 0.429688 -12.878906 C 0.429688 -11.375 -1.289062 -0.859375 3.003906 -0.859375 Z M 3.003906 -0.859375 "/></g></g></g><g fill="#ffc2d8" fill-opacity="1"><g transform="translate(310.450253, 168.998215)"><g><path d="M 0 -21.675781 C 0 -13.949219 0.644531 -10.300781 8.585938 -10.300781 C 14.808594 -10.300781 21.460938 -30.476562 25.539062 -33.265625 C 25.539062 -24.039062 32.410156 -12.878906 43.140625 -12.878906 C 46.789062 -12.878906 50.867188 -14.164062 55.160156 -17.171875 L 61.597656 -22.320312 C 72.542969 -32.835938 71.257812 -38.203125 68.035156 -38.203125 C 66.75 -38.203125 65.246094 -37.558594 64.171875 -36.058594 C 61.167969 -32.835938 60.523438 -30.90625 56.445312 -27.257812 C 51.726562 -22.535156 47.21875 -19.960938 43.140625 -19.960938 C 38.632812 -19.960938 34.769531 -23.394531 33.050781 -31.121094 C 31.121094 -39.277344 34.769531 -48.933594 27.257812 -48.933594 C 24.46875 -48.933594 15.667969 -30.691406 11.375 -24.039062 L 9.65625 -21.460938 C 8.585938 -20.175781 9.230469 -21.035156 8.585938 -20.390625 C 8.585938 -27.472656 11.589844 -35.628906 14.378906 -40.136719 C 20.605469 -50.867188 24.898438 -53.871094 28.117188 -53.871094 C 32.195312 -53.871094 34.769531 -48.933594 37.773438 -48.933594 C 43.355469 -48.933594 37.773438 -61.167969 27.6875 -61.167969 C 12.664062 -61.167969 0 -33.910156 0 -21.675781 Z M 0 -21.675781 "/></g></g></g></g></g></g><g fill="#af1b51" fill-opacity="1"><g transform="translate(69.656212, 162.556821)"><g><path d="M 1.828125 0 L 1.828125 -1.75 C 5.203125 -1.820312 7.328125 -3.101562 8.203125 -5.59375 L 20 -39.625 C 20.144531 -40.09375 20.300781 -40.398438 20.46875 -40.546875 C 20.632812 -40.691406 20.929688 -40.765625 21.359375 -40.765625 C 21.578125 -40.765625 21.753906 -40.742188 21.890625 -40.703125 C 22.035156 -40.671875 22.15625 -40.585938 22.25 -40.453125 C 22.34375 -40.328125 22.40625 -40.226562 22.4375 -40.15625 C 22.476562 -40.082031 22.554688 -39.90625 22.671875 -39.625 L 34.953125 -4.03125 C 35.253906 -3.082031 35.707031 -2.460938 36.3125 -2.171875 C 36.925781 -1.890625 38.097656 -1.75 39.828125 -1.75 L 40.828125 -1.75 L 40.828125 0 C 38.429688 -0.113281 35.945312 -0.171875 33.375 -0.171875 C 29.269531 -0.171875 26.535156 -0.113281 25.171875 0 L 25.171875 -1.75 C 28.316406 -1.75 29.890625 -2.320312 29.890625 -3.46875 C 29.890625 -3.550781 29.835938 -3.820312 29.734375 -4.28125 L 26.71875 -12.984375 L 12.65625 -12.984375 L 10.015625 -5.53125 C 9.941406 -5.382812 9.90625 -5.097656 9.90625 -4.671875 C 9.90625 -3.867188 10.273438 -3.179688 11.015625 -2.609375 C 11.753906 -2.035156 12.8125 -1.75 14.1875 -1.75 L 14.1875 0 C 10.53125 -0.113281 8.34375 -0.171875 7.625 -0.171875 C 6.375 -0.171875 4.441406 -0.113281 1.828125 0 Z M 13.265625 -14.734375 L 26.078125 -14.734375 L 19.65625 -33.265625 Z M 13.265625 -14.734375 "/></g></g></g><g fill="#af1b51" fill-opacity="1"><g transform="translate(148.354445, 162.556821)"><g><path d="M 2.109375 0 L 2.109375 -1.75 C 3.484375 -1.75 4.601562 -1.882812 5.46875 -2.15625 C 6.34375 -2.425781 6.941406 -2.816406 7.265625 -3.328125 C 7.597656 -3.835938 7.800781 -4.257812 7.875 -4.59375 C 7.945312 -4.9375 7.984375 -5.398438 7.984375 -5.984375 L 7.984375 -34.453125 C 7.984375 -35.546875 7.742188 -36.265625 7.265625 -36.609375 C 6.796875 -36.953125 5.53125 -37.125 3.46875 -37.125 L 2.109375 -37.125 L 2.109375 -38.90625 L 11.734375 -38.90625 C 12.421875 -38.90625 12.859375 -38.84375 13.046875 -38.71875 C 13.234375 -38.601562 13.460938 -38.25 13.734375 -37.65625 L 26.078125 -5.75 L 38.546875 -37.828125 C 38.734375 -38.359375 38.910156 -38.671875 39.078125 -38.765625 C 39.253906 -38.859375 39.707031 -38.90625 40.4375 -38.90625 L 50.0625 -38.90625 L 50.0625 -37.125 L 48.6875 -37.125 C 46.632812 -37.125 45.367188 -36.953125 44.890625 -36.609375 C 44.421875 -36.265625 44.1875 -35.546875 44.1875 -34.453125 L 44.1875 -4.453125 C 44.1875 -3.359375 44.421875 -2.632812 44.890625 -2.28125 C 45.367188 -1.925781 46.632812 -1.75 48.6875 -1.75 L 50.0625 -1.75 L 50.0625 0 C 48.644531 -0.113281 45.925781 -0.171875 41.90625 -0.171875 C 37.84375 -0.171875 35.109375 -0.113281 33.703125 0 L 33.703125 -1.75 L 35.09375 -1.75 C 37.15625 -1.75 38.414062 -1.921875 38.875 -2.265625 C 39.34375 -2.609375 39.578125 -3.335938 39.578125 -4.453125 L 39.578125 -37.125 L 39.515625 -37.125 L 25.53125 -1.078125 C 25.269531 -0.359375 24.925781 0 24.5 0 C 24.03125 0 23.648438 -0.414062 23.359375 -1.25 L 9.625 -36.6875 L 9.5625 -36.6875 L 9.5625 -5.984375 C 9.5625 -5.398438 9.597656 -4.9375 9.671875 -4.59375 C 9.742188 -4.257812 9.941406 -3.835938 10.265625 -3.328125 C 10.597656 -2.816406 11.195312 -2.425781 12.0625 -2.15625 C 12.9375 -1.882812 14.0625 -1.75 15.4375 -1.75 L 15.4375 0 C 11.445312 -0.113281 9.222656 -0.171875 8.765625 -0.171875 C 8.316406 -0.171875 6.097656 -0.113281 2.109375 0 Z M 2.109375 0 "/></g></g></g><g fill="#af1b51" fill-opacity="1"><g transform="translate(236.477485, 162.556821)"><g><path d="M 1.828125 0 L 1.828125 -1.75 C 5.203125 -1.820312 7.328125 -3.101562 8.203125 -5.59375 L 20 -39.625 C 20.144531 -40.09375 20.300781 -40.398438 20.46875 -40.546875 C 20.632812 -40.691406 20.929688 -40.765625 21.359375 -40.765625 C 21.578125 -40.765625 21.753906 -40.742188 21.890625 -40.703125 C 22.035156 -40.671875 22.15625 -40.585938 22.25 -40.453125 C 22.34375 -40.328125 22.40625 -40.226562 22.4375 -40.15625 C 22.476562 -40.082031 22.554688 -39.90625 22.671875 -39.625 L 34.953125 -4.03125 C 35.253906 -3.082031 35.707031 -2.460938 36.3125 -2.171875 C 36.925781 -1.890625 38.097656 -1.75 39.828125 -1.75 L 40.828125 -1.75 L 40.828125 0 C 38.429688 -0.113281 35.945312 -0.171875 33.375 -0.171875 C 29.269531 -0.171875 26.535156 -0.113281 25.171875 0 L 25.171875 -1.75 C 28.316406 -1.75 29.890625 -2.320312 29.890625 -3.46875 C 29.890625 -3.550781 29.835938 -3.820312 29.734375 -4.28125 L 26.71875 -12.984375 L 12.65625 -12.984375 L 10.015625 -5.53125 C 9.941406 -5.382812 9.90625 -5.097656 9.90625 -4.671875 C 9.90625 -3.867188 10.273438 -3.179688 11.015625 -2.609375 C 11.753906 -2.035156 12.8125 -1.75 14.1875 -1.75 L 14.1875 0 C 10.53125 -0.113281 8.34375 -0.171875 7.625 -0.171875 C 6.375 -0.171875 4.441406 -0.113281 1.828125 0 Z M 13.265625 -14.734375 L 26.078125 -14.734375 L 19.65625 -33.265625 Z M 13.265625 -14.734375 "/></g></g></g><g fill="#af1b51" fill-opacity="1"><g transform="translate(315.175729, 162.556821)"><g><path d="M 1.890625 0 L 1.890625 -1.75 C 3.265625 -1.75 4.382812 -1.882812 5.25 -2.15625 C 6.125 -2.425781 6.71875 -2.816406 7.03125 -3.328125 C 7.351562 -3.835938 7.554688 -4.257812 7.640625 -4.59375 C 7.722656 -4.9375 7.765625 -5.398438 7.765625 -5.984375 L 7.765625 -35.703125 C 7.765625 -36.242188 7.691406 -36.578125 7.546875 -36.703125 C 7.410156 -36.835938 7.019531 -36.941406 6.375 -37.015625 C 5.238281 -37.085938 4.289062 -37.125 3.53125 -37.125 L 1.890625 -37.125 L 1.890625 -38.90625 L 11.5625 -38.90625 C 12.101562 -38.90625 12.445312 -38.867188 12.59375 -38.796875 C 12.738281 -38.722656 12.941406 -38.507812 13.203125 -38.15625 L 33.3125 -8.59375 L 33.3125 -32.921875 C 33.3125 -33.492188 33.273438 -33.945312 33.203125 -34.28125 C 33.128906 -34.625 32.929688 -35.050781 32.609375 -35.5625 C 32.285156 -36.082031 31.6875 -36.472656 30.8125 -36.734375 C 29.9375 -36.992188 28.816406 -37.125 27.453125 -37.125 L 27.453125 -38.90625 C 31.429688 -38.789062 33.648438 -38.734375 34.109375 -38.734375 C 34.566406 -38.734375 36.785156 -38.789062 40.765625 -38.90625 L 40.765625 -37.125 C 39.390625 -37.125 38.265625 -36.992188 37.390625 -36.734375 C 36.523438 -36.472656 35.9375 -36.082031 35.625 -35.5625 C 35.3125 -35.050781 35.113281 -34.625 35.03125 -34.28125 C 34.945312 -33.9375 34.90625 -33.484375 34.90625 -32.921875 L 34.90625 -1.46875 C 34.90625 -0.863281 34.863281 -0.46875 34.78125 -0.28125 C 34.707031 -0.09375 34.488281 0 34.125 0 C 33.863281 0 33.539062 -0.25 33.15625 -0.75 L 9.90625 -34.90625 C 9.75 -35.125 9.5625 -35.351562 9.34375 -35.59375 L 9.34375 -5.984375 C 9.34375 -5.398438 9.378906 -4.9375 9.453125 -4.59375 C 9.523438 -4.257812 9.722656 -3.835938 10.046875 -3.328125 C 10.378906 -2.816406 10.976562 -2.425781 11.84375 -2.15625 C 12.71875 -1.882812 13.84375 -1.75 15.21875 -1.75 L 15.21875 0 C 11.226562 -0.113281 9.003906 -0.171875 8.546875 -0.171875 C 8.097656 -0.171875 5.878906 -0.113281 1.890625 0 Z M 1.890625 0 "/></g></g></g><g fill="#af1b51" fill-opacity="1"><g transform="translate(393.873974, 162.556821)"><g><path d="M 2 0 L 2 -1.75 L 3.359375 -1.75 C 5.421875 -1.75 6.6875 -1.921875 7.15625 -2.265625 C 7.632812 -2.609375 7.875 -3.335938 7.875 -4.453125 L 7.875 -34.453125 C 7.875 -35.546875 7.628906 -36.265625 7.140625 -36.609375 C 6.660156 -36.953125 5.398438 -37.125 3.359375 -37.125 L 2 -37.125 L 2 -38.90625 L 22.828125 -38.90625 C 27.691406 -38.90625 31.8125 -36.96875 35.1875 -33.09375 C 38.570312 -29.21875 40.265625 -24.5625 40.265625 -19.125 C 40.265625 -13.8125 38.5625 -9.296875 35.15625 -5.578125 C 31.757812 -1.859375 27.648438 0 22.828125 0 Z M 12.765625 -4.03125 C 12.765625 -3.050781 12.898438 -2.425781 13.171875 -2.15625 C 13.453125 -1.882812 14.242188 -1.75 15.546875 -1.75 L 21.296875 -1.75 C 23.804688 -1.75 25.90625 -2.265625 27.59375 -3.296875 C 29.28125 -4.328125 30.554688 -5.4375 31.421875 -6.625 C 33.515625 -9.476562 34.5625 -13.644531 34.5625 -19.125 C 34.5625 -24.894531 33.582031 -29.132812 31.625 -31.84375 C 29.082031 -35.363281 25.625 -37.125 21.25 -37.125 L 15.546875 -37.125 C 14.242188 -37.125 13.453125 -36.992188 13.171875 -36.734375 C 12.898438 -36.472656 12.765625 -35.84375 12.765625 -34.84375 Z M 12.765625 -4.03125 "/></g></g></g><g fill="#af1b51" fill-opacity="1"><g transform="translate(473.295042, 162.556821)"><g><path d="M 1.828125 0 L 1.828125 -1.75 C 5.203125 -1.820312 7.328125 -3.101562 8.203125 -5.59375 L 20 -39.625 C 20.144531 -40.09375 20.300781 -40.398438 20.46875 -40.546875 C 20.632812 -40.691406 20.929688 -40.765625 21.359375 -40.765625 C 21.578125 -40.765625 21.753906 -40.742188 21.890625 -40.703125 C 22.035156 -40.671875 22.15625 -40.585938 22.25 -40.453125 C 22.34375 -40.328125 22.40625 -40.226562 22.4375 -40.15625 C 22.476562 -40.082031 22.554688 -39.90625 22.671875 -39.625 L 34.953125 -4.03125 C 35.253906 -3.082031 35.707031 -2.460938 36.3125 -2.171875 C 36.925781 -1.890625 38.097656 -1.75 39.828125 -1.75 L 40.828125 -1.75 L 40.828125 0 C 38.429688 -0.113281 35.945312 -0.171875 33.375 -0.171875 C 29.269531 -0.171875 26.535156 -0.113281 25.171875 0 L 25.171875 -1.75 C 28.316406 -1.75 29.890625 -2.320312 29.890625 -3.46875 C 29.890625 -3.550781 29.835938 -3.820312 29.734375 -4.28125 L 26.71875 -12.984375 L 12.65625 -12.984375 L 10.015625 -5.53125 C 9.941406 -5.382812 9.90625 -5.097656 9.90625 -4.671875 C 9.90625 -3.867188 10.273438 -3.179688 11.015625 -2.609375 C 11.753906 -2.035156 12.8125 -1.75 14.1875 -1.75 L 14.1875 0 C 10.53125 -0.113281 8.34375 -0.171875 7.625 -0.171875 C 6.375 -0.171875 4.441406 -0.113281 1.828125 0 Z M 13.265625 -14.734375 L 26.078125 -14.734375 L 19.65625 -33.265625 Z M 13.265625 -14.734375 "/></g></g></g><g fill="#a6a6a6" fill-opacity="1"><g transform="translate(233.15084, 197.922422)"><g><path d="M 11.503906 0 L 11.484375 -13.570312 L 10.757812 -13.570312 L 10.757812 -6.351562 C 10.757812 -4.582031 10.757812 -2.476562 10.796875 -0.707031 L 3.046875 -13.570312 L 1.90625 -13.570312 L 1.90625 0 L 2.65625 0 L 2.65625 -7.238281 C 2.65625 -9.007812 2.65625 -11.089844 2.617188 -12.859375 L 10.34375 0 Z M 11.503906 0 "/></g></g></g><g fill="#a6a6a6" fill-opacity="1"><g transform="translate(258.496085, 197.922422)"><g><path d="M 9.183594 -5.171875 L 11.128906 0 L 11.9375 0 L 6.824219 -13.570312 L 5.839844 -13.570312 L 0.667969 0 L 1.476562 0 L 3.382812 -5.171875 Z M 3.636719 -5.820312 L 6.3125 -12.960938 L 8.949219 -5.820312 Z M 3.636719 -5.820312 "/></g></g></g><g fill="#a6a6a6" fill-opacity="1"><g transform="translate(283.153707, 197.922422)"><g><path d="M 2.65625 0 L 2.65625 -13.570312 L 1.90625 -13.570312 L 1.90625 0 Z M 2.65625 0 "/></g></g></g><g fill="#a6a6a6" fill-opacity="1"><g transform="translate(299.67757, 197.922422)"><g><path d="M 10.5 -0.648438 L 2.65625 -0.648438 L 2.65625 -13.570312 L 1.90625 -13.570312 L 1.90625 0 L 10.5 0 Z M 10.5 -0.648438 "/></g></g></g><g fill="#a6a6a6" fill-opacity="1"><g transform="translate(322.88133, 197.922422)"><g/></g></g><g fill="#a6a6a6" fill-opacity="1"><g transform="translate(339.090852, 197.922422)"><g><path d="M 7.394531 -13.53125 C 6.84375 -13.570312 6.527344 -13.570312 5.878906 -13.570312 L 1.90625 -13.570312 L 1.90625 0 L 5.859375 0 C 6.507812 0 6.902344 0 7.589844 -0.078125 C 9.734375 -0.335938 12.761719 -2.28125 12.761719 -6.863281 C 12.761719 -11.484375 9.734375 -13.3125 7.394531 -13.53125 Z M 7.492188 -0.746094 C 6.902344 -0.667969 6.46875 -0.648438 5.820312 -0.648438 L 2.65625 -0.648438 L 2.65625 -12.921875 L 5.859375 -12.921875 C 6.566406 -12.921875 6.902344 -12.921875 7.335938 -12.859375 C 9.519531 -12.625 11.9375 -10.816406 11.9375 -6.863281 C 11.9375 -3.007812 9.675781 -1.023438 7.492188 -0.746094 Z M 7.492188 -0.746094 "/></g></g></g><g fill="#a6a6a6" fill-opacity="1"><g transform="translate(365.025512, 197.922422)"><g><path d="M 10.5 -0.648438 L 2.65625 -0.648438 L 2.65625 -6.46875 L 9.851562 -6.46875 L 9.851562 -7.097656 L 2.65625 -7.097656 L 2.65625 -12.941406 L 10.304688 -12.941406 L 10.304688 -13.570312 L 1.90625 -13.570312 L 1.90625 0 L 10.5 0 Z M 10.5 -0.648438 "/></g></g></g><g fill="#a6a6a6" fill-opacity="1"><g transform="translate(388.563268, 197.922422)"><g><path d="M 5.742188 -13.84375 C 3.421875 -13.84375 1.457031 -12.410156 1.457031 -10.34375 C 1.457031 -8.21875 2.832031 -7.355469 5.625 -6.609375 C 8.277344 -5.878906 9.378906 -5.132812 9.378906 -3.265625 C 9.378906 -1.535156 7.808594 -0.375 5.742188 -0.375 C 3.65625 -0.375 1.90625 -1.515625 1.613281 -3.617188 L 0.824219 -3.617188 C 1.121094 -1.003906 3.1875 0.273438 5.722656 0.273438 C 8.277344 0.273438 10.1875 -1.277344 10.1875 -3.382812 C 10.1875 -5.546875 8.789062 -6.546875 5.9375 -7.316406 C 3.382812 -8.023438 2.261719 -8.632812 2.261719 -10.460938 C 2.261719 -12.289062 4.03125 -13.195312 5.683594 -13.195312 C 7.550781 -13.195312 8.910156 -12.035156 9.203125 -10.03125 L 9.988281 -10.03125 C 9.734375 -12.132812 8.339844 -13.84375 5.742188 -13.84375 Z M 5.742188 -13.84375 "/></g></g></g><g fill="#a6a6a6" fill-opacity="1"><g transform="translate(412.120666, 197.922422)"><g><path d="M 2.65625 0 L 2.65625 -13.570312 L 1.90625 -13.570312 L 1.90625 0 Z M 2.65625 0 "/></g></g></g><g fill="#a6a6a6" fill-opacity="1"><g transform="translate(428.644535, 197.922422)"><g><path d="M 7.550781 -6.175781 L 7.550781 -5.527344 L 11.78125 -5.527344 C 11.78125 -1.789062 9.125 -0.375 7.039062 -0.375 C 4.128906 -0.375 1.808594 -2.554688 1.808594 -6.785156 C 1.808594 -10.855469 4.367188 -13.195312 7.277344 -13.195312 C 9.871094 -13.195312 11.386719 -11.601562 11.820312 -9.460938 L 11.859375 -9.261719 L 12.605469 -9.261719 L 12.566406 -9.460938 C 12.132812 -11.9375 10.441406 -13.84375 7.355469 -13.84375 C 3.675781 -13.84375 0.984375 -10.953125 0.984375 -6.746094 C 0.984375 -2.4375 3.421875 0.273438 6.980469 0.273438 C 8.671875 0.273438 10.34375 -0.394531 11.386719 -2.027344 L 11.839844 -3.285156 L 11.839844 0 L 12.527344 0 L 12.527344 -6.175781 Z M 7.550781 -6.175781 "/></g></g></g><g fill="#a6a6a6" fill-opacity="1"><g transform="translate(454.795308, 197.922422)"><g><path d="M 11.503906 0 L 11.484375 -13.570312 L 10.757812 -13.570312 L 10.757812 -6.351562 C 10.757812 -4.582031 10.757812 -2.476562 10.796875 -0.707031 L 3.046875 -13.570312 L 1.90625 -13.570312 L 1.90625 0 L 2.65625 0 L 2.65625 -7.238281 C 2.65625 -9.007812 2.65625 -11.089844 2.617188 -12.859375 L 10.34375 0 Z M 11.503906 0 "/></g></g></g><g fill="#a6a6a6" fill-opacity="1"><g transform="translate(480.140558, 197.922422)"><g><path d="M 10.5 -0.648438 L 2.65625 -0.648438 L 2.65625 -6.46875 L 9.851562 -6.46875 L 9.851562 -7.097656 L 2.65625 -7.097656 L 2.65625 -12.941406 L 10.304688 -12.941406 L 10.304688 -13.570312 L 1.90625 -13.570312 L 1.90625 0 L 10.5 0 Z M 10.5 -0.648438 "/></g></g></g><g fill="#a6a6a6" fill-opacity="1"><g transform="translate(503.678313, 197.922422)"><g><path d="M 9.988281 -3.675781 C 9.832031 -5.171875 9.203125 -6.390625 8.003906 -6.804688 C 9.597656 -7.136719 10.699219 -8.339844 10.699219 -10.089844 C 10.699219 -12.113281 9.460938 -13.214844 7.394531 -13.472656 C 6.765625 -13.550781 6.175781 -13.570312 5.488281 -13.570312 L 1.90625 -13.570312 L 1.90625 0 L 2.65625 0 L 2.65625 -6.449219 L 5.664062 -6.449219 C 5.976562 -6.449219 6.429688 -6.449219 6.84375 -6.429688 C 8.417969 -6.351562 9.066406 -5.054688 9.242188 -3.558594 C 9.460938 -1.671875 9.734375 -0.867188 10.050781 0 L 10.894531 0 C 10.480469 -0.824219 10.207031 -1.710938 9.988281 -3.675781 Z M 2.65625 -7.097656 L 2.65625 -12.921875 L 5.488281 -12.921875 C 6.175781 -12.921875 6.667969 -12.902344 7.21875 -12.820312 C 8.929688 -12.605469 9.890625 -11.71875 9.890625 -10.03125 C 9.890625 -8.378906 8.808594 -7.277344 7.117188 -7.136719 C 6.546875 -7.097656 6.214844 -7.097656 5.683594 -7.097656 Z M 2.65625 -7.097656 "/></g></g></g></svg>