<svg xmlns="http://www.w3.org/2000/svg" xmlns:xlink="http://www.w3.org/1999/xlink" width="700" zoomAndPan="magnify" viewBox="0 0 525 299.999988" height="400" preserveAspectRatio="xMidYMid meet" version="1.0"><defs><filter x="0%" y="0%" width="100%" height="100%" id="ac08776f5b"><feColorMatrix values="0 0 0 0 1 0 0 0 0 1 0 0 0 0 1 0 0 0 1 0" color-interpolation-filters="sRGB"/></filter><g/><mask id="d6b637cfe3"><g filter="url(#ac08776f5b)"><rect x="-52.5" width="630" fill="#000000" y="-29.999999" height="359.999986" fill-opacity="0.6392"/></g></mask><clipPath id="d1ea7ccb22"><rect x="0" width="409" y="0" height="300"/></clipPath></defs><g mask="url(#d6b637cfe3)"><g transform="matrix(1, 0, 0, 1, 64, 0)"><g clip-path="url(#d1ea7ccb22)"><g fill="#b6406b" fill-opacity="1"><g transform="translate(0.671447, 170.228612)"><g><path d="M 84.0625 5.710938 C 84.0625 0.914062 82.917969 -2.511719 82.917969 -11.648438 C 82.917969 -27.640625 88.402344 -69.671875 83.375 -78.351562 C 82.460938 -80.40625 80.40625 -81.546875 78.121094 -81.546875 C 76.523438 -81.546875 74.925781 -81.089844 73.554688 -80.179688 C 68.757812 -76.980469 64.417969 -68.070312 61.445312 -62.359375 C 45.230469 -29.46875 36.320312 14.164062 26.039062 51.625 L 20.558594 68.070312 C 19.417969 70.582031 19.417969 71.726562 16.902344 72.410156 L 14.621094 61.21875 C 8.453125 24.214844 13.707031 -36.777344 18.503906 -70.128906 C 22.613281 -97.765625 25.582031 -113.984375 32.664062 -140.027344 C 34.035156 -144.59375 37.691406 -153.046875 31.292969 -153.046875 C 22.15625 -153.046875 10.734375 -83.148438 10.050781 -78.578125 C 7.996094 -64.417969 6.167969 -50.480469 4.570312 -36.089844 L 2.285156 10.050781 C 2.285156 24.898438 3.65625 81.320312 16.902344 81.320312 C 21.472656 81.320312 22.84375 79.035156 24.898438 75.382812 C 29.011719 65.332031 32.4375 55.507812 34.949219 45 C 38.832031 31.523438 42.257812 16.445312 45.914062 2.054688 C 50.710938 -17.589844 61.21875 -53.679688 73.78125 -70.582031 C 75.382812 -72.640625 75.152344 -73.324219 77.894531 -74.011719 C 77.894531 -70.582031 78.351562 -68.527344 78.351562 -66.699219 L 74.925781 -21.015625 C 74.238281 -10.964844 74.238281 14.390625 84.0625 14.390625 C 96.167969 14.390625 109.417969 -37.234375 113.300781 -47.511719 C 119.46875 -62.589844 122.894531 -75.382812 130.433594 -92.054688 C 137.742188 -108.503906 141.851562 -117.867188 151.21875 -133.171875 C 154.644531 -139.113281 159.671875 -146.878906 165.609375 -149.847656 C 170.863281 -138.425781 159.898438 -81.777344 157.84375 -68.984375 C 152.816406 -39.0625 150.761719 -18.960938 147.105469 9.824219 L 140.253906 111.699219 C 140.484375 114.441406 140.484375 115.8125 140.710938 119.695312 C 140.941406 123.351562 142.996094 125.636719 144.824219 125.636719 C 146.421875 125.636719 148.019531 123.808594 148.019531 119.695312 C 148.019531 111.242188 147.792969 100.738281 148.476562 92.511719 C 152.132812 59.621094 153.730469 27.867188 158.757812 -5.9375 L 172.917969 -100.28125 C 174.0625 -108.046875 183.425781 -158.070312 165.609375 -158.070312 C 149.621094 -158.070312 123.351562 -94.570312 118.554688 -82.460938 C 109.417969 -59.164062 103.019531 -37.691406 94.339844 -15.078125 C 92.511719 -9.367188 88.171875 3.199219 84.0625 5.710938 Z M 84.0625 5.710938 "/></g></g></g><g fill="#b6406b" fill-opacity="1"><g transform="translate(175.416627, 170.228612)"><g><path d="M 11.421875 -5.253906 C 6.394531 -15.761719 16.902344 -36.320312 18.503906 -42.945312 C 26.496094 -37.691406 20.785156 -7.765625 11.421875 -5.253906 Z M 0 -13.019531 C 0 -1.140625 5.027344 4.796875 10.964844 4.796875 C 17.816406 4.796875 26.269531 -3.199219 29.695312 -18.960938 C 34.722656 -42.488281 23.757812 -46.371094 22.613281 -50.710938 C 23.757812 -52.539062 25.8125 -53.910156 26.496094 -55.507812 C 27.183594 -57.335938 25.8125 -60.988281 22.84375 -60.988281 C 11.648438 -60.988281 0 -23.300781 0 -13.019531 Z M 0 -13.019531 "/></g></g></g><g fill="#b6406b" fill-opacity="1"><g transform="translate(215.619436, 170.228612)"><g><path d="M 0.226562 -27.867188 C 0.226562 -20.101562 -0.914062 -8.910156 9.59375 -8.910156 C 16.675781 -8.910156 27.410156 -26.269531 31.066406 -32.664062 C 32.4375 -35.179688 35.632812 -40.429688 37.460938 -41.574219 C 37.460938 -30.609375 38.375 -11.648438 53.453125 -11.648438 C 60.304688 -11.648438 67.84375 -16.445312 74.011719 -22.15625 C 76.75 -24.671875 87.257812 -33.351562 87.257812 -37.234375 C 87.257812 -39.746094 85.433594 -40.203125 83.605469 -40.203125 C 79.265625 -40.203125 64.1875 -18.960938 54.136719 -18.960938 C 49.796875 -18.960938 46.371094 -22.84375 45 -33.808594 C 44.316406 -39.746094 47.285156 -54.824219 41.117188 -54.824219 C 36.777344 -54.824219 35.40625 -51.167969 32.4375 -46.828125 L 18.730469 -26.726562 C 16.445312 -23.757812 13.933594 -19.417969 10.277344 -18.273438 C 6.851562 -33.578125 20.785156 -57.5625 20.785156 -58.476562 C 20.785156 -60.53125 20.101562 -60.53125 19.875 -62.132812 C 18.273438 -63.046875 16.902344 -63.273438 15.761719 -63.273438 C 13.933594 -63.273438 12.335938 -62.359375 10.734375 -60.53125 C 5.027344 -53.222656 0.226562 -37.691406 0.226562 -27.867188 Z M 0.226562 -27.867188 "/></g></g></g><g fill="#b6406b" fill-opacity="1"><g transform="translate(292.827105, 170.228612)"><g><path d="M 3.199219 -0.914062 C 10.277344 -0.914062 7.539062 -8.679688 8.910156 -14.621094 C 9.824219 -20.101562 11.878906 -24.671875 14.164062 -28.554688 C 17.816406 -34.492188 18.960938 -34.492188 27.640625 -34.492188 C 30.152344 -34.492188 33.578125 -34.265625 36.546875 -34.265625 C 41.117188 -34.265625 44.773438 -34.722656 44.773438 -37.917969 C 44.773438 -40.886719 37.691406 -41.34375 31.066406 -41.34375 C 27.183594 -41.34375 23.300781 -41.117188 21.242188 -41.117188 C 14.164062 -41.117188 12.792969 -36.777344 9.367188 -34.492188 C 9.367188 -37.460938 9.824219 -37.234375 9.824219 -40.429688 C 9.824219 -42.714844 9.824219 -45.457031 10.050781 -47.742188 C 10.734375 -54.136719 11.878906 -58.476562 5.710938 -58.476562 C 0.683594 -58.476562 0.226562 -34.722656 0.226562 -30.609375 C 0.457031 -24.898438 0.226562 -19.1875 0.457031 -13.707031 C 0.457031 -12.105469 -1.371094 -0.914062 3.199219 -0.914062 Z M 3.199219 -0.914062 "/></g></g></g><g fill="#b6406b" fill-opacity="1"><g transform="translate(330.060401, 170.228612)"><g><path d="M 0 -23.070312 C 0 -14.847656 0.683594 -10.964844 9.136719 -10.964844 C 15.761719 -10.964844 22.84375 -32.4375 27.183594 -35.40625 C 27.183594 -25.582031 34.492188 -13.707031 45.914062 -13.707031 C 49.796875 -13.707031 54.136719 -15.078125 58.707031 -18.273438 L 65.558594 -23.757812 C 77.207031 -34.949219 75.835938 -40.660156 72.410156 -40.660156 C 71.039062 -40.660156 69.441406 -39.976562 68.300781 -38.375 C 65.101562 -34.949219 64.417969 -32.894531 60.078125 -29.011719 C 55.050781 -23.984375 50.253906 -21.242188 45.914062 -21.242188 C 41.117188 -21.242188 37.003906 -24.898438 35.179688 -33.121094 C 33.121094 -41.800781 37.003906 -52.082031 29.011719 -52.082031 C 26.039062 -52.082031 16.675781 -32.664062 12.105469 -25.582031 L 10.277344 -22.84375 C 9.136719 -21.472656 9.824219 -22.386719 9.136719 -21.699219 C 9.136719 -29.238281 12.335938 -37.917969 15.304688 -42.714844 C 21.929688 -54.136719 26.496094 -57.335938 29.925781 -57.335938 C 34.265625 -57.335938 37.003906 -52.082031 40.203125 -52.082031 C 46.140625 -52.082031 40.203125 -65.101562 29.46875 -65.101562 C 13.476562 -65.101562 0 -36.089844 0 -23.070312 Z M 0 -23.070312 "/></g></g></g></g></g></g><g fill="#ffffff" fill-opacity="1"><g transform="translate(24.96691, 163.373035)"><g><path d="M 1.953125 0 L 1.953125 -1.859375 C 5.546875 -1.941406 7.804688 -3.304688 8.734375 -5.953125 L 21.28125 -42.171875 C 21.4375 -42.660156 21.601562 -42.984375 21.78125 -43.140625 C 21.957031 -43.304688 22.273438 -43.390625 22.734375 -43.390625 C 22.960938 -43.390625 23.148438 -43.367188 23.296875 -43.328125 C 23.453125 -43.285156 23.578125 -43.195312 23.671875 -43.0625 C 23.773438 -42.925781 23.84375 -42.816406 23.875 -42.734375 C 23.914062 -42.648438 24 -42.460938 24.125 -42.171875 L 37.203125 -4.296875 C 37.515625 -3.285156 37.992188 -2.625 38.640625 -2.3125 C 39.296875 -2.007812 40.539062 -1.859375 42.375 -1.859375 L 43.4375 -1.859375 L 43.4375 0 C 40.894531 -0.113281 38.253906 -0.171875 35.515625 -0.171875 C 31.148438 -0.171875 28.238281 -0.113281 26.78125 0 L 26.78125 -1.859375 C 30.132812 -1.859375 31.8125 -2.472656 31.8125 -3.703125 C 31.8125 -3.773438 31.753906 -4.0625 31.640625 -4.5625 L 28.4375 -13.828125 L 13.46875 -13.828125 L 10.65625 -5.890625 C 10.570312 -5.734375 10.53125 -5.425781 10.53125 -4.96875 C 10.53125 -4.125 10.925781 -3.394531 11.71875 -2.78125 C 12.507812 -2.164062 13.632812 -1.859375 15.09375 -1.859375 L 15.09375 0 C 11.207031 -0.113281 8.878906 -0.171875 8.109375 -0.171875 C 6.785156 -0.171875 4.734375 -0.113281 1.953125 0 Z M 14.109375 -15.6875 L 27.765625 -15.6875 L 20.921875 -35.390625 Z M 14.109375 -15.6875 "/></g></g></g><g fill="#ffffff" fill-opacity="1"><g transform="translate(108.725573, 163.373035)"><g><path d="M 2.25 0 L 2.25 -1.859375 C 3.707031 -1.859375 4.898438 -2 5.828125 -2.28125 C 6.753906 -2.570312 7.390625 -2.988281 7.734375 -3.53125 C 8.078125 -4.070312 8.289062 -4.523438 8.375 -4.890625 C 8.457031 -5.265625 8.5 -5.753906 8.5 -6.359375 L 8.5 -36.671875 C 8.5 -37.828125 8.242188 -38.585938 7.734375 -38.953125 C 7.234375 -39.328125 5.890625 -39.515625 3.703125 -39.515625 L 2.25 -39.515625 L 2.25 -41.40625 L 12.484375 -41.40625 C 13.210938 -41.40625 13.675781 -41.335938 13.875 -41.203125 C 14.070312 -41.078125 14.320312 -40.703125 14.625 -40.078125 L 27.765625 -6.125 L 41.015625 -40.25 C 41.210938 -40.820312 41.40625 -41.15625 41.59375 -41.25 C 41.78125 -41.351562 42.257812 -41.40625 43.03125 -41.40625 L 53.265625 -41.40625 L 53.265625 -39.515625 L 51.8125 -39.515625 C 49.625 -39.515625 48.28125 -39.328125 47.78125 -38.953125 C 47.28125 -38.585938 47.03125 -37.828125 47.03125 -36.671875 L 47.03125 -4.734375 C 47.03125 -3.566406 47.28125 -2.796875 47.78125 -2.421875 C 48.28125 -2.046875 49.625 -1.859375 51.8125 -1.859375 L 53.265625 -1.859375 L 53.265625 0 C 51.765625 -0.113281 48.875 -0.171875 44.59375 -0.171875 C 40.28125 -0.171875 37.375 -0.113281 35.875 0 L 35.875 -1.859375 L 37.34375 -1.859375 C 39.539062 -1.859375 40.882812 -2.039062 41.375 -2.40625 C 41.863281 -2.769531 42.109375 -3.546875 42.109375 -4.734375 L 42.109375 -39.515625 L 42.046875 -39.515625 L 27.171875 -1.15625 C 26.890625 -0.382812 26.523438 0 26.078125 0 C 25.578125 0 25.171875 -0.441406 24.859375 -1.328125 L 10.234375 -39.03125 L 10.1875 -39.03125 L 10.1875 -6.359375 C 10.1875 -5.753906 10.222656 -5.265625 10.296875 -4.890625 C 10.378906 -4.523438 10.59375 -4.070312 10.9375 -3.53125 C 11.28125 -2.988281 11.914062 -2.570312 12.84375 -2.28125 C 13.769531 -2 14.960938 -1.859375 16.421875 -1.859375 L 16.421875 0 C 12.179688 -0.113281 9.816406 -0.171875 9.328125 -0.171875 C 8.847656 -0.171875 6.488281 -0.113281 2.25 0 Z M 2.25 0 "/></g></g></g><g fill="#ffffff" fill-opacity="1"><g transform="translate(202.515073, 163.373035)"><g><path d="M 1.953125 0 L 1.953125 -1.859375 C 5.546875 -1.941406 7.804688 -3.304688 8.734375 -5.953125 L 21.28125 -42.171875 C 21.4375 -42.660156 21.601562 -42.984375 21.78125 -43.140625 C 21.957031 -43.304688 22.273438 -43.390625 22.734375 -43.390625 C 22.960938 -43.390625 23.148438 -43.367188 23.296875 -43.328125 C 23.453125 -43.285156 23.578125 -43.195312 23.671875 -43.0625 C 23.773438 -42.925781 23.84375 -42.816406 23.875 -42.734375 C 23.914062 -42.648438 24 -42.460938 24.125 -42.171875 L 37.203125 -4.296875 C 37.515625 -3.285156 37.992188 -2.625 38.640625 -2.3125 C 39.296875 -2.007812 40.539062 -1.859375 42.375 -1.859375 L 43.4375 -1.859375 L 43.4375 0 C 40.894531 -0.113281 38.253906 -0.171875 35.515625 -0.171875 C 31.148438 -0.171875 28.238281 -0.113281 26.78125 0 L 26.78125 -1.859375 C 30.132812 -1.859375 31.8125 -2.472656 31.8125 -3.703125 C 31.8125 -3.773438 31.753906 -4.0625 31.640625 -4.5625 L 28.4375 -13.828125 L 13.46875 -13.828125 L 10.65625 -5.890625 C 10.570312 -5.734375 10.53125 -5.425781 10.53125 -4.96875 C 10.53125 -4.125 10.925781 -3.394531 11.71875 -2.78125 C 12.507812 -2.164062 13.632812 -1.859375 15.09375 -1.859375 L 15.09375 0 C 11.207031 -0.113281 8.878906 -0.171875 8.109375 -0.171875 C 6.785156 -0.171875 4.734375 -0.113281 1.953125 0 Z M 14.109375 -15.6875 L 27.765625 -15.6875 L 20.921875 -35.390625 Z M 14.109375 -15.6875 "/></g></g></g><g fill="#ffffff" fill-opacity="1"><g transform="translate(286.273749, 163.373035)"><g><path d="M 2.015625 0 L 2.015625 -1.859375 C 3.472656 -1.859375 4.664062 -2 5.59375 -2.28125 C 6.519531 -2.570312 7.148438 -2.988281 7.484375 -3.53125 C 7.816406 -4.070312 8.023438 -4.523438 8.109375 -4.890625 C 8.203125 -5.265625 8.25 -5.753906 8.25 -6.359375 L 8.25 -38 C 8.25 -38.570312 8.175781 -38.925781 8.03125 -39.0625 C 7.882812 -39.195312 7.46875 -39.304688 6.78125 -39.390625 C 5.570312 -39.472656 4.566406 -39.515625 3.765625 -39.515625 L 2.015625 -39.515625 L 2.015625 -41.40625 L 12.3125 -41.40625 C 12.882812 -41.40625 13.25 -41.363281 13.40625 -41.28125 C 13.5625 -41.207031 13.78125 -40.984375 14.0625 -40.609375 L 35.453125 -9.140625 L 35.453125 -35.046875 C 35.453125 -35.648438 35.410156 -36.128906 35.328125 -36.484375 C 35.253906 -36.835938 35.046875 -37.289062 34.703125 -37.84375 C 34.359375 -38.40625 33.722656 -38.820312 32.796875 -39.09375 C 31.867188 -39.375 30.671875 -39.515625 29.203125 -39.515625 L 29.203125 -41.40625 C 33.453125 -41.28125 35.816406 -41.21875 36.296875 -41.21875 C 36.773438 -41.21875 39.140625 -41.28125 43.390625 -41.40625 L 43.390625 -39.515625 C 41.929688 -39.515625 40.734375 -39.375 39.796875 -39.09375 C 38.867188 -38.820312 38.238281 -38.40625 37.90625 -37.84375 C 37.570312 -37.289062 37.359375 -36.832031 37.265625 -36.46875 C 37.179688 -36.101562 37.140625 -35.628906 37.140625 -35.046875 L 37.140625 -1.5625 C 37.140625 -0.914062 37.097656 -0.492188 37.015625 -0.296875 C 36.941406 -0.0976562 36.707031 0 36.3125 0 C 36.03125 0 35.6875 -0.265625 35.28125 -0.796875 L 10.53125 -37.140625 C 10.375 -37.378906 10.175781 -37.625 9.9375 -37.875 L 9.9375 -6.359375 C 9.9375 -5.753906 9.976562 -5.265625 10.0625 -4.890625 C 10.144531 -4.523438 10.359375 -4.070312 10.703125 -3.53125 C 11.046875 -2.988281 11.679688 -2.570312 12.609375 -2.28125 C 13.535156 -2 14.726562 -1.859375 16.1875 -1.859375 L 16.1875 0 C 11.945312 -0.113281 9.582031 -0.171875 9.09375 -0.171875 C 8.613281 -0.171875 6.253906 -0.113281 2.015625 0 Z M 2.015625 0 "/></g></g></g><g fill="#ffffff" fill-opacity="1"><g transform="translate(370.032424, 163.373035)"><g><path d="M 2.125 0 L 2.125 -1.859375 L 3.578125 -1.859375 C 5.765625 -1.859375 7.109375 -2.039062 7.609375 -2.40625 C 8.117188 -2.769531 8.375 -3.546875 8.375 -4.734375 L 8.375 -36.671875 C 8.375 -37.828125 8.117188 -38.585938 7.609375 -38.953125 C 7.097656 -39.328125 5.753906 -39.515625 3.578125 -39.515625 L 2.125 -39.515625 L 2.125 -41.40625 L 24.296875 -41.40625 C 29.460938 -41.40625 33.847656 -39.34375 37.453125 -35.21875 C 41.054688 -31.09375 42.859375 -26.140625 42.859375 -20.359375 C 42.859375 -14.703125 41.046875 -9.894531 37.421875 -5.9375 C 33.796875 -1.976562 29.421875 0 24.296875 0 Z M 13.578125 -4.296875 C 13.578125 -3.242188 13.722656 -2.570312 14.015625 -2.28125 C 14.316406 -2 15.160156 -1.859375 16.546875 -1.859375 L 22.671875 -1.859375 C 25.335938 -1.859375 27.566406 -2.40625 29.359375 -3.5 C 31.148438 -4.601562 32.507812 -5.785156 33.4375 -7.046875 C 35.664062 -10.078125 36.78125 -14.515625 36.78125 -20.359375 C 36.78125 -26.492188 35.738281 -31.003906 33.65625 -33.890625 C 30.945312 -37.640625 27.265625 -39.515625 22.609375 -39.515625 L 16.546875 -39.515625 C 15.160156 -39.515625 14.316406 -39.375 14.015625 -39.09375 C 13.722656 -38.820312 13.578125 -38.148438 13.578125 -37.078125 Z M 13.578125 -4.296875 "/></g></g></g><g fill="#ffffff" fill-opacity="1"><g transform="translate(454.560402, 163.373035)"><g><path d="M 1.953125 0 L 1.953125 -1.859375 C 5.546875 -1.941406 7.804688 -3.304688 8.734375 -5.953125 L 21.28125 -42.171875 C 21.4375 -42.660156 21.601562 -42.984375 21.78125 -43.140625 C 21.957031 -43.304688 22.273438 -43.390625 22.734375 -43.390625 C 22.960938 -43.390625 23.148438 -43.367188 23.296875 -43.328125 C 23.453125 -43.285156 23.578125 -43.195312 23.671875 -43.0625 C 23.773438 -42.925781 23.84375 -42.816406 23.875 -42.734375 C 23.914062 -42.648438 24 -42.460938 24.125 -42.171875 L 37.203125 -4.296875 C 37.515625 -3.285156 37.992188 -2.625 38.640625 -2.3125 C 39.296875 -2.007812 40.539062 -1.859375 42.375 -1.859375 L 43.4375 -1.859375 L 43.4375 0 C 40.894531 -0.113281 38.253906 -0.171875 35.515625 -0.171875 C 31.148438 -0.171875 28.238281 -0.113281 26.78125 0 L 26.78125 -1.859375 C 30.132812 -1.859375 31.8125 -2.472656 31.8125 -3.703125 C 31.8125 -3.773438 31.753906 -4.0625 31.640625 -4.5625 L 28.4375 -13.828125 L 13.46875 -13.828125 L 10.65625 -5.890625 C 10.570312 -5.734375 10.53125 -5.425781 10.53125 -4.96875 C 10.53125 -4.125 10.925781 -3.394531 11.71875 -2.78125 C 12.507812 -2.164062 13.632812 -1.859375 15.09375 -1.859375 L 15.09375 0 C 11.207031 -0.113281 8.878906 -0.171875 8.109375 -0.171875 C 6.785156 -0.171875 4.734375 -0.113281 1.953125 0 Z M 14.109375 -15.6875 L 27.765625 -15.6875 L 20.921875 -35.390625 Z M 14.109375 -15.6875 "/></g></g></g><g fill="#ffffff" fill-opacity="1"><g transform="translate(198.974515, 201.012707)"><g><path d="M 12.242188 0 L 12.222656 -14.441406 L 11.449219 -14.441406 L 11.449219 -6.761719 C 11.449219 -4.875 11.449219 -2.636719 11.492188 -0.753906 L 3.246094 -14.441406 L 2.03125 -14.441406 L 2.03125 0 L 2.824219 0 L 2.824219 -7.703125 C 2.824219 -9.585938 2.824219 -11.804688 2.785156 -13.6875 L 11.007812 0 Z M 12.242188 0 "/></g></g></g><g fill="#ffffff" fill-opacity="1"><g transform="translate(225.949503, 201.012707)"><g><path d="M 9.773438 -5.503906 L 11.847656 0 L 12.703125 0 L 7.261719 -14.441406 L 6.214844 -14.441406 L 0.710938 0 L 1.570312 0 L 3.601562 -5.503906 Z M 3.871094 -6.195312 L 6.71875 -13.792969 L 9.523438 -6.195312 Z M 3.871094 -6.195312 "/></g></g></g><g fill="#ffffff" fill-opacity="1"><g transform="translate(252.192651, 201.012707)"><g><path d="M 2.824219 0 L 2.824219 -14.441406 L 2.03125 -14.441406 L 2.03125 0 Z M 2.824219 0 "/></g></g></g><g fill="#ffffff" fill-opacity="1"><g transform="translate(269.779027, 201.012707)"><g><path d="M 11.175781 -0.691406 L 2.824219 -0.691406 L 2.824219 -14.441406 L 2.03125 -14.441406 L 2.03125 0 L 11.175781 0 Z M 11.175781 -0.691406 "/></g></g></g><g fill="#ffffff" fill-opacity="1"><g transform="translate(294.474828, 201.012707)"><g/></g></g><g fill="#ffffff" fill-opacity="1"><g transform="translate(311.726649, 201.012707)"><g><path d="M 7.871094 -14.398438 C 7.285156 -14.441406 6.949219 -14.441406 6.257812 -14.441406 L 2.03125 -14.441406 L 2.03125 0 L 6.238281 0 C 6.929688 0 7.347656 0 8.078125 -0.0820312 C 10.359375 -0.355469 13.582031 -2.429688 13.582031 -7.304688 C 13.582031 -12.222656 10.359375 -14.167969 7.871094 -14.398438 Z M 7.972656 -0.796875 C 7.347656 -0.710938 6.886719 -0.691406 6.195312 -0.691406 L 2.824219 -0.691406 L 2.824219 -13.75 L 6.238281 -13.75 C 6.992188 -13.75 7.347656 -13.75 7.808594 -13.6875 C 10.128906 -13.4375 12.703125 -11.511719 12.703125 -7.304688 C 12.703125 -3.203125 10.296875 -1.089844 7.972656 -0.796875 Z M 7.972656 -0.796875 "/></g></g></g><g fill="#ffffff" fill-opacity="1"><g transform="translate(339.328952, 201.012707)"><g><path d="M 11.175781 -0.691406 L 2.824219 -0.691406 L 2.824219 -6.886719 L 10.484375 -6.886719 L 10.484375 -7.554688 L 2.824219 -7.554688 L 2.824219 -13.773438 L 10.96875 -13.773438 L 10.96875 -14.441406 L 2.03125 -14.441406 L 2.03125 0 L 11.175781 0 Z M 11.175781 -0.691406 "/></g></g></g><g fill="#ffffff" fill-opacity="1"><g transform="translate(364.380225, 201.012707)"><g><path d="M 6.113281 -14.734375 C 3.640625 -14.734375 1.546875 -13.207031 1.546875 -11.007812 C 1.546875 -8.75 3.015625 -7.828125 5.984375 -7.03125 C 8.8125 -6.257812 9.984375 -5.460938 9.984375 -3.472656 C 9.984375 -1.632812 8.308594 -0.398438 6.113281 -0.398438 C 3.894531 -0.398438 2.03125 -1.613281 1.714844 -3.851562 L 0.878906 -3.851562 C 1.191406 -1.066406 3.390625 0.292969 6.089844 0.292969 C 8.8125 0.292969 10.839844 -1.359375 10.839844 -3.601562 C 10.839844 -5.902344 9.355469 -6.96875 6.320312 -7.785156 C 3.601562 -8.539062 2.40625 -9.1875 2.40625 -11.136719 C 2.40625 -13.082031 4.289062 -14.042969 6.046875 -14.042969 C 8.039062 -14.042969 9.480469 -12.808594 9.796875 -10.675781 L 10.632812 -10.675781 C 10.359375 -12.914062 8.875 -14.734375 6.113281 -14.734375 Z M 6.113281 -14.734375 "/></g></g></g><g fill="#ffffff" fill-opacity="1"><g transform="translate(389.452405, 201.012707)"><g><path d="M 2.824219 0 L 2.824219 -14.441406 L 2.03125 -14.441406 L 2.03125 0 Z M 2.824219 0 "/></g></g></g><g fill="#ffffff" fill-opacity="1"><g transform="translate(407.038787, 201.012707)"><g><path d="M 8.039062 -6.570312 L 8.039062 -5.882812 L 12.535156 -5.882812 C 12.535156 -1.90625 9.710938 -0.398438 7.492188 -0.398438 C 4.394531 -0.398438 1.925781 -2.722656 1.925781 -7.222656 C 1.925781 -11.554688 4.644531 -14.042969 7.742188 -14.042969 C 10.507812 -14.042969 12.117188 -12.347656 12.578125 -10.066406 L 12.621094 -9.859375 L 13.417969 -9.859375 L 13.375 -10.066406 C 12.914062 -12.703125 11.113281 -14.734375 7.828125 -14.734375 C 3.914062 -14.734375 1.046875 -11.65625 1.046875 -7.179688 C 1.046875 -2.59375 3.640625 0.292969 7.429688 0.292969 C 9.230469 0.292969 11.007812 -0.417969 12.117188 -2.15625 L 12.601562 -3.496094 L 12.601562 0 L 13.332031 0 L 13.332031 -6.570312 Z M 8.039062 -6.570312 "/></g></g></g><g fill="#ffffff" fill-opacity="1"><g transform="translate(434.871099, 201.012707)"><g><path d="M 12.242188 0 L 12.222656 -14.441406 L 11.449219 -14.441406 L 11.449219 -6.761719 C 11.449219 -4.875 11.449219 -2.636719 11.492188 -0.753906 L 3.246094 -14.441406 L 2.03125 -14.441406 L 2.03125 0 L 2.824219 0 L 2.824219 -7.703125 C 2.824219 -9.585938 2.824219 -11.804688 2.785156 -13.6875 L 11.007812 0 Z M 12.242188 0 "/></g></g></g><g fill="#ffffff" fill-opacity="1"><g transform="translate(461.846091, 201.012707)"><g><path d="M 11.175781 -0.691406 L 2.824219 -0.691406 L 2.824219 -6.886719 L 10.484375 -6.886719 L 10.484375 -7.554688 L 2.824219 -7.554688 L 2.824219 -13.773438 L 10.96875 -13.773438 L 10.96875 -14.441406 L 2.03125 -14.441406 L 2.03125 0 L 11.175781 0 Z M 11.175781 -0.691406 "/></g></g></g><g fill="#ffffff" fill-opacity="1"><g transform="translate(486.897364, 201.012707)"><g><path d="M 10.632812 -3.914062 C 10.464844 -5.503906 9.796875 -6.800781 8.519531 -7.242188 C 10.214844 -7.597656 11.386719 -8.875 11.386719 -10.738281 C 11.386719 -12.894531 10.066406 -14.066406 7.871094 -14.335938 C 7.199219 -14.421875 6.570312 -14.441406 5.839844 -14.441406 L 2.03125 -14.441406 L 2.03125 0 L 2.824219 0 L 2.824219 -6.863281 L 6.027344 -6.863281 C 6.363281 -6.863281 6.84375 -6.863281 7.285156 -6.84375 C 8.957031 -6.761719 9.648438 -5.378906 9.835938 -3.789062 C 10.066406 -1.777344 10.359375 -0.921875 10.695312 0 L 11.59375 0 C 11.15625 -0.878906 10.863281 -1.820312 10.632812 -3.914062 Z M 2.824219 -7.554688 L 2.824219 -13.75 L 5.839844 -13.75 C 6.570312 -13.75 7.09375 -13.730469 7.679688 -13.644531 C 9.503906 -13.417969 10.527344 -12.472656 10.527344 -10.675781 C 10.527344 -8.917969 9.375 -7.742188 7.578125 -7.597656 C 6.96875 -7.554688 6.613281 -7.554688 6.046875 -7.554688 Z M 2.824219 -7.554688 "/></g></g></g></svg>