<?xml version="1.0" encoding="UTF-8"?>
<!DOCTYPE svg PUBLIC "-//W3C//DTD SVG 1.1//EN" "http://www.w3.org/Graphics/SVG/1.1/DTD/svg11.dtd">
<!-- Creator: CorelDRAW -->
<svg xmlns="http://www.w3.org/2000/svg" xml:space="preserve" width="338.667mm" height="127mm" version="1.1" style="shape-rendering:geometricPrecision; text-rendering:geometricPrecision; image-rendering:optimizeQuality; fill-rule:evenodd; clip-rule:evenodd"
viewBox="0 0 33866.66 12700"
 xmlns:xlink="http://www.w3.org/1999/xlink"
 xmlns:xodm="http://www.corel.com/coreldraw/odm/2003">
 <defs>
  <style type="text/css">
   <![CDATA[
    .fil1 {fill:#999999;fill-rule:nonzero}
    .fil0 {fill:#CCCCCC;fill-rule:nonzero}
   ]]>
  </style>
 </defs>
 <g id="Camada_x0020_1">
  <metadata id="CorelCorpID_0Corel-Layer"/>
  <g id="_2495907222896">
   <path class="fil0" d="M3059.51 9119.07l0 -548.97c111.89,-6.25 195.61,-22.68 252.73,-50.83 56.34,-27.37 104.84,-73.51 146.31,-138.42 41.48,-64.91 69.64,-146.23 85.29,-243.98 11.73,-73.52 18,-200.98 18,-383.19 0,-296.38 14.08,-502.83 41.46,-620.13 27.39,-117.31 76.68,-211.15 148.67,-282.31 71.98,-71.17 176.82,-126.69 313.75,-168.13 93.11,-27.38 240.2,-41.45 440.51,-41.45l121.28 0 0 548.97c-170.58,0 -279.33,9.38 -327.84,28.93 -48.51,18.78 -83.72,47.71 -107.2,86.81 -22.69,39.1 -34.43,105.57 -34.43,200.19 0,96.19 -6.25,279.18 -18.77,547.41 -7.82,151.71 -27.38,273.71 -59.47,368.33 -32.08,93.84 -72.76,171.26 -122.84,232.26 -49.29,60.99 -125.19,124.34 -227.69,190.03 90.77,51.61 164.32,112.61 222.21,182.2 57.91,69.6 101.72,154.06 132.24,253.38 31.3,99.31 50.85,233.04 60.24,399.6 9.4,253.38 14.08,416.03 14.08,486.41 0,100.89 12.53,171.27 36.77,211.15 24.27,39.1 61.04,69.6 111.11,89.93 49.3,21.12 156.49,31.28 321.59,31.28l0 548.97 -121.28 0c-206.56,0 -364.61,-16.42 -474.94,-49.26 -109.53,-32.85 -202.65,-87.59 -277.76,-164.22 -75.9,-75.87 -126.76,-170.48 -152.57,-283.1 -25.82,-111.82 -39.12,-289.34 -39.12,-530.98 0,-280.74 -12.53,-463.73 -36.78,-547.41 -33.64,-122.78 -84.5,-210.36 -152.57,-262.75 -68.08,-53.18 -172.14,-82.9 -312.98,-90.72zm1855.15 -145.45l661.94 422.03c39.9,221.31 119.73,383.19 241,487.19 121.26,104.01 284.8,155.63 490.58,155.63 217.52,0 381.85,-46.16 492.15,-138.42 110.3,-92.25 165.87,-200.19 165.87,-323.75 0,-79.76 -23.46,-147.01 -69.63,-203.33 -46.17,-55.52 -127.53,-104 -243.33,-144.67 -79.03,-28.15 -258.99,-76.64 -540.68,-147.02 -362.26,-90.71 -616.55,-201.75 -762.86,-333.91 -205.78,-185.34 -308.28,-411.34 -308.28,-678.01 0,-171.26 48.51,-332.35 144.75,-481.71 97.02,-149.37 236.32,-262.79 418.6,-340.96 182.28,-78.18 401.39,-117.31 659.59,-117.31 420.17,0 737.06,93.06 949.09,279.96 212.83,186.9 323.93,435.59 334.88,747.61l-680.72 23.46c-28.95,-173.6 -90.78,-297.97 -185.42,-373.8 -94.66,-75.83 -237.09,-114.17 -426.44,-114.17 -195.6,0 -348.96,40.66 -459.28,121.98 -71.2,52.4 -107.2,122 -107.2,209.58 0,79.77 33.65,147.8 100.93,204.11 85.29,72.73 292.64,147.8 622.04,226.01 329.41,77.41 572.74,158.74 730.01,241.63 158.06,83.68 281.71,197.1 370.87,341.75 89.18,144.64 133.8,322.97 133.8,534.89 0,192.37 -53.21,373.02 -160.39,541.15 -107.19,168.14 -258.21,293.26 -453.82,374.59 -195.61,82.11 -439.73,122.77 -731.58,122.77 -424.85,0 -751.13,-97.75 -978.82,-294.04 -227.69,-195.5 -363.05,-968.66 -407.65,-1343.24zm4192.28 1576.28l0 -1413.87 -1232.33 -1945.64 795.73 0 794.95 1330.19 773.83 -1330.19 780.87 0 -1232.33 1950.33 0 1409.18 -680.72 0zm2070.32 -1088.56l661.94 -65.69c39.89,221.31 119.72,383.19 240.99,487.19 121.26,104.01 284.8,155.63 490.58,155.63 217.52,0 381.85,-46.16 492.15,-138.42 110.3,-92.25 165.87,-200.19 165.87,-323.75 0,-79.76 -23.46,-147.01 -69.63,-203.33 -46.17,-55.52 -127.53,-104 -243.33,-144.67 -79.03,-28.15 -258.99,-76.64 -540.68,-147.02 -362.26,-90.71 -616.55,-201.75 -762.86,-333.91 -205.78,-185.34 -308.28,-411.34 -308.28,-678.01 0,-171.26 48.51,-332.35 144.75,-481.71 97.02,-149.37 236.32,-262.79 418.6,-340.96 182.28,-78.18 401.39,-117.31 659.6,-117.31 420.16,0 737.05,93.06 949.08,279.96 212.83,186.9 323.93,435.59 334.89,747.61l-680.72 23.46c-28.96,-173.6 -90.79,-297.97 -185.43,-373.8 -94.66,-75.83 -237.09,-114.17 -426.43,-114.17 -195.61,0 -348.97,40.66 -459.29,121.98 -71.2,52.4 -107.2,122 -107.2,209.58 0,79.77 33.65,147.8 100.94,204.11 85.28,72.73 292.63,147.8 622.04,226.01 329.4,77.41 572.73,158.74 730,241.63 158.06,83.68 281.71,197.1 370.88,341.75 89.17,144.64 133.79,322.97 133.79,534.89 0,192.37 -53.2,373.02 -160.39,541.15 -107.19,168.14 -258.21,293.26 -453.81,374.59 -195.62,82.11 -439.74,122.77 -731.58,122.77 -424.86,0 -751.14,-97.75 -978.83,-294.04 -227.68,-195.5 -363.05,-480.93 -407.64,-855.52zm4065.52 1088.56l0 -2791.78 -995.26 0 0 -567.73 2666.54 0 0 567.73 -990.57 0 0 2791.78 -680.71 0zm2111.78 0l0 -3359.51 2488.13 0 0 567.73 -1807.41 0 0 746.04 1680.67 0 0 567.74 -1680.67 0 0 910.26 1873.14 0 0 567.74 -2553.86 0zm3121.91 0l0 -3359.51 1019.51 0 602.47 2291.29 595.44 -2291.29 1021.86 0 0 3359.51 -629.08 0 -2.36 -2644.76 -662.71 2644.76 -654.11 0 -659.6 -2644.76 -2.34 2644.76 -629.08 0zm3741.6 -1088.56l661.94 -65.69c39.9,221.31 119.71,383.19 240.99,487.19 121.28,104.02 284.8,155.63 490.58,155.63 217.52,0 381.84,-46.15 492.15,-138.42 110.32,-92.27 165.88,-200.19 165.88,-323.75 0,-79.76 -23.47,-147.01 -69.63,-203.33 -46.17,-55.52 -127.54,-104 -243.34,-144.67 -79.02,-28.15 -258.99,-76.64 -540.67,-147.02 -362.26,-90.71 -616.55,-201.75 -762.87,-333.91 -205.78,-185.34 -308.28,-411.34 -308.28,-678.01 0,-171.26 48.52,-332.35 144.75,-481.71 97.03,-149.37 236.3,-262.76 418.61,-340.96 182.3,-78.2 401.39,-117.31 659.59,-117.31 420.16,0 737.05,93.06 949.09,279.96 212.82,186.9 323.93,435.59 334.88,747.61l-680.72 23.46c-28.95,-173.6 -90.76,-297.95 -185.43,-373.8 -94.67,-75.86 -237.08,-114.17 -426.43,-114.17 -195.61,0 -348.96,40.66 -459.29,121.98 -71.2,52.4 -107.19,122 -107.19,209.58 0,79.77 33.64,147.8 100.93,204.11 85.29,72.73 292.63,147.8 622.04,226.01 329.4,77.41 572.74,158.74 730.01,241.63 158.06,83.68 281.69,197.1 370.87,341.75 89.17,144.65 133.8,322.97 133.8,534.89 0,192.37 -53.23,373.04 -160.4,541.15 -107.17,168.11 -258.2,293.26 -453.81,374.59 -195.61,82.11 -439.73,122.77 -731.58,122.77 -424.86,0 -751.14,-97.75 -978.82,-294.04 -227.69,-195.5 -363.05,-480.93 -407.65,-855.52zm4638.26 -342.27c-111.88,6.26 -195.61,22.68 -251.95,50.05 -57.12,28.15 -105.62,74.29 -146.31,139.2 -39.9,64.9 -68.85,146.23 -86.07,243.99 -11.73,73.51 -17.99,200.19 -17.99,380.84 0,296.38 -13.31,503.61 -39.9,621.69 -26.6,117.31 -75.9,211.93 -147.88,283.09 -71.99,71.17 -177.61,126.68 -316.11,168.14 -93.11,27.36 -240.2,41.44 -440.51,41.44l-121.27 0 0 -548.97c164.31,0 271.51,-10.16 322.36,-31.28 50.07,-20.33 87.63,-50.05 111.11,-89.15 24.25,-39.1 35.99,-104.79 36.77,-198.63 0.78,-93.06 7.04,-271.36 17.99,-534.12 7.83,-159.53 28.17,-286.21 61.82,-382.4 33.64,-95.4 78.24,-176.74 133.79,-243.2 56.34,-66.48 127.54,-124.34 214.39,-175.17 -112.67,-73.51 -195.61,-145.46 -247.25,-215.05 -71.98,-100.89 -121.28,-229.13 -147.09,-385.54 -16.44,-106.35 -28.17,-341.74 -34.43,-705.37 -1.57,-114.18 -11.74,-190.81 -31.3,-229.13 -18.77,-37.54 -53.21,-67.26 -103.28,-87.59 -50.08,-21.11 -161.18,-31.28 -334.88,-31.28l0 -548.97 121.27 0c206.56,0 364.61,16.42 474.94,48.48 109.54,32.07 201.87,86.8 276.99,163.44 75.1,77.42 125.97,172.05 152.57,284.66 26.59,111.83 39.9,289.34 39.9,530.99 0,279.17 11.74,462.16 34.44,547.4 33.64,122.78 84.49,210.36 153.34,262.76 68.86,53.17 173.7,82.89 314.54,90.71l0 548.97z"/>
   <g>
    <path class="fil1" d="M12099.93 6035.13l-951.12 -1363.08c551.29,-236.27 872.36,-702.74 872.36,-1338.85 0,-951.12 -708.79,-1538.75 -1841.66,-1538.75l-1835.61 0 0 4240.68 981.42 0 0 -1181.34 854.19 0 48.47 0 817.84 1181.34 1054.11 0zm-1072.28 -2701.93c0,460.42 -302.91,739.1 -902.66,739.1l-799.67 0 0 -1478.18 799.67 0c599.75,0 902.66,272.61 902.66,739.08zm1768.96 2701.93l981.43 0 0 -4240.68 -981.43 0 0 4240.68zm6765.91 0l-12.11 -4240.68 -806.74 0 -1561.99 2635.28 -1586.21 -2635.28 -811.79 0 0 4240.68 920.84 0 0 -2489.89 1240.9 2041.59 442.24 0 1246.96 -2096.12 6.06 2544.42 921.84 0zm4175.05 0l1029.88 0 -1896.19 -4240.68 -969.29 0 -1890.13 4240.68 1005.64 0 375.61 -908.72 1968.88 0 375.6 908.72zm-2029.46 -1653.87l672.44 -1623.57 672.46 1623.57 -1344.9 0zm6421.6 -2586.81l0 2574.7 -2108.23 -2574.7 -811.79 0 0 4240.68 969.3 0 0 -2574.7 2114.29 2574.7 805.73 0 0 -4240.68 -969.3 0z"/>
    <path class="fil1" d="M2816.82 6035.13l2705.51 4.33c1393.15,2.22 2348.3,-839.55 2348.3,-2129.29 0,-1289.74 -955.16,-2136.27 -2348.3,-2129.29l-2705.51 13.57 0 783.08 751.57 1.31 0.08 953.23 -751.65 -1.33 1.33 743.48 750.32 0 0 956.11 -751.65 0 0 804.8zm1756.45 -804.8l0 -2640.32 900.39 0c845.63,0 1399.24,504.94 1399.24,1320.16 0,815.21 -553.61,1320.16 -1399.24,1320.16l-900.39 0z"/>
   </g>
  </g>
 </g>
</svg>
